<mxfile modified="2021-10-04T13:41:54.219Z" host="app.diagrams.net" agent="5.0 (Windows NT 10.0; Win64; x64) AppleWebKit/537.36 (KHTML, like Gecko) Chrome/94.0.4606.61 Safari/537.36" etag="suSo9-KxZw-oYzgddGR9" version="15.4.0" type="github" pages="4">
  <diagram id="IXSOVjMTE_YPoDqijHiB" name="MDM_PROSPECTOS_FISICOS_RESOLUTION">
    <mxGraphModel dx="1609" dy="1580" grid="1" gridSize="10" guides="1" tooltips="1" connect="1" arrows="1" fold="1" page="1" pageScale="1" pageWidth="827" pageHeight="1169" math="0" shadow="0">
      <root>
        <mxCell id="N6D3VxInhKjDF4RK35B2-0" />
        <mxCell id="N6D3VxInhKjDF4RK35B2-1" parent="N6D3VxInhKjDF4RK35B2-0" />
        <mxCell id="5SXPaweV5nUDn9tTxkkN-16" value="MDM PROSPECTOS FISICOS RESOLUTION AUTOMATICA" style="rounded=0;whiteSpace=wrap;html=1;fontSize=8;align=left;verticalAlign=top;container=1;" parent="N6D3VxInhKjDF4RK35B2-1" vertex="1">
          <mxGeometry x="-615" y="-380" width="2250" height="690" as="geometry" />
        </mxCell>
        <mxCell id="Kd91Xrv85qqO7_TNA4I5-3" style="edgeStyle=orthogonalEdgeStyle;rounded=0;orthogonalLoop=1;jettySize=auto;html=1;" parent="N6D3VxInhKjDF4RK35B2-1" source="5SXPaweV5nUDn9tTxkkN-0" target="5SXPaweV5nUDn9tTxkkN-5" edge="1">
          <mxGeometry relative="1" as="geometry" />
        </mxCell>
        <mxCell id="5SXPaweV5nUDn9tTxkkN-0" value="PROSPECTOS" style="rounded=1;whiteSpace=wrap;html=1;" parent="N6D3VxInhKjDF4RK35B2-1" vertex="1">
          <mxGeometry x="-450" y="-260" width="120" height="60" as="geometry" />
        </mxCell>
        <mxCell id="Kd91Xrv85qqO7_TNA4I5-7" value="N" style="edgeStyle=orthogonalEdgeStyle;rounded=0;orthogonalLoop=1;jettySize=auto;html=1;" parent="N6D3VxInhKjDF4RK35B2-1" source="5SXPaweV5nUDn9tTxkkN-1" target="TLmeV_ma4Y9DImUPyMtI-0" edge="1">
          <mxGeometry relative="1" as="geometry" />
        </mxCell>
        <mxCell id="7bdWI7hFp1tPUaP1uvjq-3" value="S" style="edgeStyle=orthogonalEdgeStyle;rounded=0;orthogonalLoop=1;jettySize=auto;html=1;entryX=0.5;entryY=0;entryDx=0;entryDy=0;" parent="N6D3VxInhKjDF4RK35B2-1" source="5SXPaweV5nUDn9tTxkkN-1" target="7bdWI7hFp1tPUaP1uvjq-2" edge="1">
          <mxGeometry relative="1" as="geometry" />
        </mxCell>
        <mxCell id="5SXPaweV5nUDn9tTxkkN-1" value="Todo los campos DQ OK" style="rhombus;whiteSpace=wrap;html=1;fontSize=8;fillColor=#fff2cc;strokeColor=#d6b656;" parent="N6D3VxInhKjDF4RK35B2-1" vertex="1">
          <mxGeometry x="40" y="-270" width="80" height="80" as="geometry" />
        </mxCell>
        <mxCell id="Kd91Xrv85qqO7_TNA4I5-6" style="edgeStyle=orthogonalEdgeStyle;rounded=0;orthogonalLoop=1;jettySize=auto;html=1;" parent="N6D3VxInhKjDF4RK35B2-1" source="5SXPaweV5nUDn9tTxkkN-5" target="5SXPaweV5nUDn9tTxkkN-1" edge="1">
          <mxGeometry relative="1" as="geometry" />
        </mxCell>
        <mxCell id="5SXPaweV5nUDn9tTxkkN-5" value="VERIFICAR REGLAS DQ" style="rounded=0;whiteSpace=wrap;html=1;fontSize=8;fillColor=#fff2cc;strokeColor=#d6b656;" parent="N6D3VxInhKjDF4RK35B2-1" vertex="1">
          <mxGeometry x="-190" y="-260" width="120" height="60" as="geometry" />
        </mxCell>
        <mxCell id="7bdWI7hFp1tPUaP1uvjq-10" style="edgeStyle=orthogonalEdgeStyle;rounded=0;orthogonalLoop=1;jettySize=auto;html=1;" parent="N6D3VxInhKjDF4RK35B2-1" source="5SXPaweV5nUDn9tTxkkN-9" target="7bdWI7hFp1tPUaP1uvjq-5" edge="1">
          <mxGeometry relative="1" as="geometry" />
        </mxCell>
        <mxCell id="5SXPaweV5nUDn9tTxkkN-9" value="Aplicar cambios Automaticos" style="rounded=0;whiteSpace=wrap;html=1;fontSize=8;fillColor=#fff2cc;strokeColor=#d6b656;" parent="N6D3VxInhKjDF4RK35B2-1" vertex="1">
          <mxGeometry x="620" y="-260" width="120" height="60" as="geometry" />
        </mxCell>
        <mxCell id="Kd91Xrv85qqO7_TNA4I5-5" style="edgeStyle=orthogonalEdgeStyle;rounded=0;orthogonalLoop=1;jettySize=auto;html=1;entryX=0;entryY=0.5;entryDx=0;entryDy=0;" parent="N6D3VxInhKjDF4RK35B2-1" source="cPFC1PdQhsd8ZY0BR_sQ-1" target="5SXPaweV5nUDn9tTxkkN-9" edge="1">
          <mxGeometry relative="1" as="geometry" />
        </mxCell>
        <mxCell id="cPFC1PdQhsd8ZY0BR_sQ-1" value="addCRC_ANTES" style="rounded=0;whiteSpace=wrap;html=1;fontSize=8;fillColor=#fff2cc;strokeColor=#d6b656;" parent="N6D3VxInhKjDF4RK35B2-1" vertex="1">
          <mxGeometry x="450" y="-260" width="120" height="60" as="geometry" />
        </mxCell>
        <mxCell id="E5L78GECL7zKdzLJB52X-3" value="añadir un campo hash con &lt;br&gt;todos los campos que se controlan/corrigen" style="text;html=1;resizable=0;autosize=1;align=center;verticalAlign=middle;points=[];fillColor=none;strokeColor=none;rounded=0;" parent="N6D3VxInhKjDF4RK35B2-1" vertex="1">
          <mxGeometry x="385" y="-310" width="250" height="30" as="geometry" />
        </mxCell>
        <mxCell id="7bdWI7hFp1tPUaP1uvjq-2" value="FIN" style="rounded=1;whiteSpace=wrap;html=1;" parent="N6D3VxInhKjDF4RK35B2-1" vertex="1">
          <mxGeometry x="20" y="-90" width="120" height="60" as="geometry" />
        </mxCell>
        <mxCell id="7bdWI7hFp1tPUaP1uvjq-19" style="edgeStyle=orthogonalEdgeStyle;rounded=0;orthogonalLoop=1;jettySize=auto;html=1;entryX=0;entryY=0.5;entryDx=0;entryDy=0;" parent="N6D3VxInhKjDF4RK35B2-1" source="7bdWI7hFp1tPUaP1uvjq-4" target="7bdWI7hFp1tPUaP1uvjq-18" edge="1">
          <mxGeometry relative="1" as="geometry" />
        </mxCell>
        <mxCell id="3gZUd_WtBZJvI-j1wX5a-2" value="N&lt;br&gt;" style="edgeLabel;html=1;align=center;verticalAlign=middle;resizable=0;points=[];" parent="7bdWI7hFp1tPUaP1uvjq-19" vertex="1" connectable="0">
          <mxGeometry x="0.24" y="2" relative="1" as="geometry">
            <mxPoint as="offset" />
          </mxGeometry>
        </mxCell>
        <mxCell id="dBlUjTMuX_Pjru3MjkzY-1" value="S" style="edgeStyle=orthogonalEdgeStyle;rounded=0;orthogonalLoop=1;jettySize=auto;html=1;" parent="N6D3VxInhKjDF4RK35B2-1" source="7bdWI7hFp1tPUaP1uvjq-4" target="dBlUjTMuX_Pjru3MjkzY-0" edge="1">
          <mxGeometry relative="1" as="geometry" />
        </mxCell>
        <mxCell id="7bdWI7hFp1tPUaP1uvjq-4" value="Todo los campos DQ OK&lt;br&gt;Y&lt;br&gt;addCRC_ANTES!=addCRC_DESPUES" style="rhombus;whiteSpace=wrap;html=1;fontSize=8;fillColor=#fff2cc;strokeColor=#d6b656;" parent="N6D3VxInhKjDF4RK35B2-1" vertex="1">
          <mxGeometry x="1190" y="-270" width="80" height="80" as="geometry" />
        </mxCell>
        <mxCell id="7bdWI7hFp1tPUaP1uvjq-11" style="edgeStyle=orthogonalEdgeStyle;rounded=0;orthogonalLoop=1;jettySize=auto;html=1;entryX=0;entryY=0.5;entryDx=0;entryDy=0;" parent="N6D3VxInhKjDF4RK35B2-1" source="7bdWI7hFp1tPUaP1uvjq-5" target="7bdWI7hFp1tPUaP1uvjq-7" edge="1">
          <mxGeometry relative="1" as="geometry" />
        </mxCell>
        <mxCell id="7bdWI7hFp1tPUaP1uvjq-5" value="VERIFICAR REGLAS DQ" style="rounded=0;whiteSpace=wrap;html=1;fontSize=8;fillColor=#fff2cc;strokeColor=#d6b656;" parent="N6D3VxInhKjDF4RK35B2-1" vertex="1">
          <mxGeometry x="810" y="-260" width="120" height="60" as="geometry" />
        </mxCell>
        <mxCell id="7bdWI7hFp1tPUaP1uvjq-12" style="edgeStyle=orthogonalEdgeStyle;rounded=0;orthogonalLoop=1;jettySize=auto;html=1;entryX=0;entryY=0.5;entryDx=0;entryDy=0;" parent="N6D3VxInhKjDF4RK35B2-1" source="7bdWI7hFp1tPUaP1uvjq-7" target="7bdWI7hFp1tPUaP1uvjq-4" edge="1">
          <mxGeometry relative="1" as="geometry" />
        </mxCell>
        <mxCell id="7bdWI7hFp1tPUaP1uvjq-7" value="addCRC_DESPUES" style="rounded=0;whiteSpace=wrap;html=1;fontSize=8;fillColor=#fff2cc;strokeColor=#d6b656;" parent="N6D3VxInhKjDF4RK35B2-1" vertex="1">
          <mxGeometry x="970" y="-260" width="120" height="60" as="geometry" />
        </mxCell>
        <mxCell id="TLmeV_ma4Y9DImUPyMtI-12" style="edgeStyle=orthogonalEdgeStyle;rounded=0;orthogonalLoop=1;jettySize=auto;html=1;entryX=0.5;entryY=0;entryDx=0;entryDy=0;" parent="N6D3VxInhKjDF4RK35B2-1" source="7bdWI7hFp1tPUaP1uvjq-16" target="TLmeV_ma4Y9DImUPyMtI-10" edge="1">
          <mxGeometry relative="1" as="geometry" />
        </mxCell>
        <mxCell id="7bdWI7hFp1tPUaP1uvjq-16" value="API updatePerson con los datos corregidos" style="rounded=0;whiteSpace=wrap;html=1;fontSize=8;fillColor=#fff2cc;strokeColor=#d6b656;" parent="N6D3VxInhKjDF4RK35B2-1" vertex="1">
          <mxGeometry x="1170" width="120" height="60" as="geometry" />
        </mxCell>
        <mxCell id="7bdWI7hFp1tPUaP1uvjq-18" value="Mandar la persona al TDS para corrección manual" style="rounded=0;whiteSpace=wrap;html=1;fontSize=8;fillColor=#fff2cc;strokeColor=#d6b656;" parent="N6D3VxInhKjDF4RK35B2-1" vertex="1">
          <mxGeometry x="1420" y="-260" width="120" height="60" as="geometry" />
        </mxCell>
        <mxCell id="7bdWI7hFp1tPUaP1uvjq-20" style="edgeStyle=orthogonalEdgeStyle;rounded=0;orthogonalLoop=1;jettySize=auto;html=1;exitX=0.5;exitY=1;exitDx=0;exitDy=0;" parent="N6D3VxInhKjDF4RK35B2-1" source="7bdWI7hFp1tPUaP1uvjq-18" target="7bdWI7hFp1tPUaP1uvjq-18" edge="1">
          <mxGeometry relative="1" as="geometry" />
        </mxCell>
        <mxCell id="7bdWI7hFp1tPUaP1uvjq-21" value="campos a projectar:&lt;br&gt;idPnODH&lt;br&gt;codigoValidez&lt;br&gt;tipoPersona&lt;br&gt;datosIdentificativos.datosPersonaFisica.nombre&lt;br&gt;datosIdentificativos.datosPersonaFisica.primerApellido&lt;br&gt;datosIdentificativos.datosPersonaFisica.segundoApellido&lt;br&gt;datosIdentificativos.datosPersonaFisica.codigoGenero&lt;br&gt;datosIdentificativos.numeroIdentidad&lt;br&gt;aplicacionGrabacion&lt;br&gt;datosIdentificativos.datosContactoCliente.email&lt;br&gt;datosIdentificativos.datosContactoCliente.telefonoMovil&lt;br&gt;" style="text;html=1;resizable=0;autosize=1;align=center;verticalAlign=middle;points=[];fillColor=none;strokeColor=none;rounded=0;" parent="N6D3VxInhKjDF4RK35B2-1" vertex="1">
          <mxGeometry x="-550" y="-90" width="320" height="170" as="geometry" />
        </mxCell>
        <mxCell id="3gZUd_WtBZJvI-j1wX5a-0" value="añadir un campo hash con &lt;br&gt;todos los campos que se controlan/corrigen" style="text;html=1;resizable=0;autosize=1;align=center;verticalAlign=middle;points=[];fillColor=none;strokeColor=none;rounded=0;" parent="N6D3VxInhKjDF4RK35B2-1" vertex="1">
          <mxGeometry x="770" y="-325" width="250" height="30" as="geometry" />
        </mxCell>
        <mxCell id="viKbyDzMR7V0aKBcqqSP-1" value="MDM PROSPECTOS FISICOS RESOLUTION MANUAL" style="rounded=0;whiteSpace=wrap;html=1;fontSize=8;align=left;verticalAlign=top;" parent="N6D3VxInhKjDF4RK35B2-1" vertex="1">
          <mxGeometry x="-560" y="460" width="880" height="230" as="geometry" />
        </mxCell>
        <mxCell id="dIpDbuyOPx0jBaVzItwe-4" style="edgeStyle=orthogonalEdgeStyle;rounded=0;orthogonalLoop=1;jettySize=auto;html=1;entryX=0;entryY=0.5;entryDx=0;entryDy=0;" parent="N6D3VxInhKjDF4RK35B2-1" source="viKbyDzMR7V0aKBcqqSP-2" target="dIpDbuyOPx0jBaVzItwe-3" edge="1">
          <mxGeometry relative="1" as="geometry" />
        </mxCell>
        <mxCell id="viKbyDzMR7V0aKBcqqSP-2" value="Recuperar las personas corregidas manualemente desde TDS" style="rounded=0;whiteSpace=wrap;html=1;fontSize=8;fillColor=#fff2cc;strokeColor=#d6b656;" parent="N6D3VxInhKjDF4RK35B2-1" vertex="1">
          <mxGeometry x="-550" y="540" width="120" height="60" as="geometry" />
        </mxCell>
        <mxCell id="TLmeV_ma4Y9DImUPyMtI-16" style="edgeStyle=orthogonalEdgeStyle;rounded=0;orthogonalLoop=1;jettySize=auto;html=1;entryX=0;entryY=0.5;entryDx=0;entryDy=0;" parent="N6D3VxInhKjDF4RK35B2-1" source="viKbyDzMR7V0aKBcqqSP-5" target="TLmeV_ma4Y9DImUPyMtI-14" edge="1">
          <mxGeometry relative="1" as="geometry" />
        </mxCell>
        <mxCell id="viKbyDzMR7V0aKBcqqSP-5" value="API updatePerson con los datos corregidos" style="rounded=0;whiteSpace=wrap;html=1;fontSize=8;fillColor=#fff2cc;strokeColor=#d6b656;" parent="N6D3VxInhKjDF4RK35B2-1" vertex="1">
          <mxGeometry x="-180" y="540" width="120" height="60" as="geometry" />
        </mxCell>
        <mxCell id="dIpDbuyOPx0jBaVzItwe-5" style="edgeStyle=orthogonalEdgeStyle;rounded=0;orthogonalLoop=1;jettySize=auto;html=1;" parent="N6D3VxInhKjDF4RK35B2-1" source="dIpDbuyOPx0jBaVzItwe-3" target="viKbyDzMR7V0aKBcqqSP-5" edge="1">
          <mxGeometry relative="1" as="geometry" />
        </mxCell>
        <mxCell id="dIpDbuyOPx0jBaVzItwe-3" value="Mappear los datos corregidos" style="rounded=0;whiteSpace=wrap;html=1;fontSize=8;fillColor=#fff2cc;strokeColor=#d6b656;" parent="N6D3VxInhKjDF4RK35B2-1" vertex="1">
          <mxGeometry x="-365" y="540" width="120" height="60" as="geometry" />
        </mxCell>
        <mxCell id="dBlUjTMuX_Pjru3MjkzY-2" style="edgeStyle=orthogonalEdgeStyle;rounded=0;orthogonalLoop=1;jettySize=auto;html=1;" parent="N6D3VxInhKjDF4RK35B2-1" source="dBlUjTMuX_Pjru3MjkzY-0" target="7bdWI7hFp1tPUaP1uvjq-16" edge="1">
          <mxGeometry relative="1" as="geometry" />
        </mxCell>
        <mxCell id="dBlUjTMuX_Pjru3MjkzY-0" value="Mappear los datos corregidos" style="rounded=0;whiteSpace=wrap;html=1;fontSize=8;fillColor=#fff2cc;strokeColor=#d6b656;" parent="N6D3VxInhKjDF4RK35B2-1" vertex="1">
          <mxGeometry x="1170" y="-130" width="120" height="60" as="geometry" />
        </mxCell>
        <mxCell id="dBlUjTMuX_Pjru3MjkzY-4" value="//Usar Talend Data Mapper" style="text;html=1;resizable=0;autosize=1;align=center;verticalAlign=middle;points=[];fillColor=none;strokeColor=none;rounded=0;" parent="N6D3VxInhKjDF4RK35B2-1" vertex="1">
          <mxGeometry x="1320" y="-110" width="160" height="20" as="geometry" />
        </mxCell>
        <mxCell id="dBlUjTMuX_Pjru3MjkzY-5" value="//Usar tRestClient" style="text;html=1;resizable=0;autosize=1;align=center;verticalAlign=middle;points=[];fillColor=none;strokeColor=none;rounded=0;" parent="N6D3VxInhKjDF4RK35B2-1" vertex="1">
          <mxGeometry x="1320" y="10" width="110" height="20" as="geometry" />
        </mxCell>
        <mxCell id="dBlUjTMuX_Pjru3MjkzY-6" value="//Usar Talend Data Mapper" style="text;html=1;resizable=0;autosize=1;align=center;verticalAlign=middle;points=[];fillColor=none;strokeColor=none;rounded=0;" parent="N6D3VxInhKjDF4RK35B2-1" vertex="1">
          <mxGeometry x="-385" y="610" width="160" height="20" as="geometry" />
        </mxCell>
        <mxCell id="dBlUjTMuX_Pjru3MjkzY-7" value="//Usar tRestClient" style="text;html=1;resizable=0;autosize=1;align=center;verticalAlign=middle;points=[];fillColor=none;strokeColor=none;rounded=0;" parent="N6D3VxInhKjDF4RK35B2-1" vertex="1">
          <mxGeometry x="-170" y="610" width="110" height="20" as="geometry" />
        </mxCell>
        <mxCell id="ExUmL3hqJjcXv1aCyWFo-0" value="indicadorPersona&amp;nbsp;: Prospect&lt;br&gt;tipoPersona: 1&lt;br&gt;fechaGrabacionODH &amp;gt; ${today}" style="text;html=1;resizable=0;autosize=1;align=center;verticalAlign=middle;points=[];fillColor=none;strokeColor=none;rounded=0;" parent="N6D3VxInhKjDF4RK35B2-1" vertex="1">
          <mxGeometry x="-480" y="-195" width="180" height="50" as="geometry" />
        </mxCell>
        <mxCell id="L0ZA2nJTBuuxzZAEMN4r-0" value="campaña: ProspectosFisicosResolucion" style="text;html=1;resizable=0;autosize=1;align=center;verticalAlign=middle;points=[];fillColor=none;strokeColor=none;rounded=0;" parent="N6D3VxInhKjDF4RK35B2-1" vertex="1">
          <mxGeometry x="1365" y="-195" width="230" height="20" as="geometry" />
        </mxCell>
        <mxCell id="TLmeV_ma4Y9DImUPyMtI-1" style="edgeStyle=orthogonalEdgeStyle;rounded=0;orthogonalLoop=1;jettySize=auto;html=1;entryX=0;entryY=0.5;entryDx=0;entryDy=0;" parent="N6D3VxInhKjDF4RK35B2-1" source="TLmeV_ma4Y9DImUPyMtI-0" target="cPFC1PdQhsd8ZY0BR_sQ-1" edge="1">
          <mxGeometry relative="1" as="geometry" />
        </mxCell>
        <mxCell id="TLmeV_ma4Y9DImUPyMtI-3" style="edgeStyle=orthogonalEdgeStyle;rounded=0;orthogonalLoop=1;jettySize=auto;html=1;entryX=0.5;entryY=0;entryDx=0;entryDy=0;" parent="N6D3VxInhKjDF4RK35B2-1" source="TLmeV_ma4Y9DImUPyMtI-0" target="TLmeV_ma4Y9DImUPyMtI-2" edge="1">
          <mxGeometry relative="1" as="geometry" />
        </mxCell>
        <mxCell id="TLmeV_ma4Y9DImUPyMtI-0" value="Marca el registro con las reglas no complidas" style="rounded=0;whiteSpace=wrap;html=1;fontSize=8;fillColor=#fff2cc;strokeColor=#d6b656;" parent="N6D3VxInhKjDF4RK35B2-1" vertex="1">
          <mxGeometry x="230" y="-260" width="120" height="60" as="geometry" />
        </mxCell>
        <mxCell id="TLmeV_ma4Y9DImUPyMtI-5" style="edgeStyle=orthogonalEdgeStyle;rounded=0;orthogonalLoop=1;jettySize=auto;html=1;entryX=0.5;entryY=0;entryDx=0;entryDy=0;" parent="N6D3VxInhKjDF4RK35B2-1" source="TLmeV_ma4Y9DImUPyMtI-2" target="TLmeV_ma4Y9DImUPyMtI-4" edge="1">
          <mxGeometry relative="1" as="geometry" />
        </mxCell>
        <mxCell id="TLmeV_ma4Y9DImUPyMtI-2" value="escribir el registro dentro de un csv de log" style="rounded=0;whiteSpace=wrap;html=1;fontSize=8;fillColor=#fff2cc;strokeColor=#d6b656;" parent="N6D3VxInhKjDF4RK35B2-1" vertex="1">
          <mxGeometry x="230" y="-170" width="120" height="60" as="geometry" />
        </mxCell>
        <mxCell id="TLmeV_ma4Y9DImUPyMtI-4" value="mandar mail con registros incorrectos" style="rounded=0;whiteSpace=wrap;html=1;fontSize=8;fillColor=#fff2cc;strokeColor=#d6b656;" parent="N6D3VxInhKjDF4RK35B2-1" vertex="1">
          <mxGeometry x="230" y="-80" width="120" height="60" as="geometry" />
        </mxCell>
        <mxCell id="TLmeV_ma4Y9DImUPyMtI-6" value="Modulo a definir:&lt;br&gt;-TRIM de los nombres appelidos&lt;br&gt;-Gestion caratceres raros nombres,appelidos&lt;br&gt;-Borrar espacio correos" style="text;html=1;resizable=0;autosize=1;align=center;verticalAlign=middle;points=[];fillColor=none;strokeColor=none;rounded=0;" parent="N6D3VxInhKjDF4RK35B2-1" vertex="1">
          <mxGeometry x="565" y="-190" width="260" height="60" as="geometry" />
        </mxCell>
        <mxCell id="TLmeV_ma4Y9DImUPyMtI-9" value="//Usar tRestClient" style="text;html=1;resizable=0;autosize=1;align=center;verticalAlign=middle;points=[];fillColor=none;strokeColor=none;rounded=0;" parent="N6D3VxInhKjDF4RK35B2-1" vertex="1">
          <mxGeometry x="2260" y="280" width="110" height="20" as="geometry" />
        </mxCell>
        <mxCell id="TLmeV_ma4Y9DImUPyMtI-13" value="" style="edgeStyle=orthogonalEdgeStyle;rounded=0;orthogonalLoop=1;jettySize=auto;html=1;" parent="N6D3VxInhKjDF4RK35B2-1" source="TLmeV_ma4Y9DImUPyMtI-10" target="TLmeV_ma4Y9DImUPyMtI-11" edge="1">
          <mxGeometry relative="1" as="geometry" />
        </mxCell>
        <mxCell id="TLmeV_ma4Y9DImUPyMtI-10" value="escribir el registro dentro de un csv de log" style="rounded=0;whiteSpace=wrap;html=1;fontSize=8;fillColor=#fff2cc;strokeColor=#d6b656;" parent="N6D3VxInhKjDF4RK35B2-1" vertex="1">
          <mxGeometry x="1170" y="100" width="120" height="60" as="geometry" />
        </mxCell>
        <mxCell id="TLmeV_ma4Y9DImUPyMtI-11" value="mandar mail con registros incorrectos" style="rounded=0;whiteSpace=wrap;html=1;fontSize=8;fillColor=#fff2cc;strokeColor=#d6b656;" parent="N6D3VxInhKjDF4RK35B2-1" vertex="1">
          <mxGeometry x="1170" y="190" width="120" height="60" as="geometry" />
        </mxCell>
        <mxCell id="TLmeV_ma4Y9DImUPyMtI-17" style="edgeStyle=orthogonalEdgeStyle;rounded=0;orthogonalLoop=1;jettySize=auto;html=1;" parent="N6D3VxInhKjDF4RK35B2-1" source="TLmeV_ma4Y9DImUPyMtI-14" target="TLmeV_ma4Y9DImUPyMtI-15" edge="1">
          <mxGeometry relative="1" as="geometry" />
        </mxCell>
        <mxCell id="TLmeV_ma4Y9DImUPyMtI-14" value="escribir el registro dentro de un csv de log" style="rounded=0;whiteSpace=wrap;html=1;fontSize=8;fillColor=#fff2cc;strokeColor=#d6b656;" parent="N6D3VxInhKjDF4RK35B2-1" vertex="1">
          <mxGeometry y="540" width="120" height="60" as="geometry" />
        </mxCell>
        <mxCell id="TLmeV_ma4Y9DImUPyMtI-15" value="mandar mail con registros incorrectos" style="rounded=0;whiteSpace=wrap;html=1;fontSize=8;fillColor=#fff2cc;strokeColor=#d6b656;" parent="N6D3VxInhKjDF4RK35B2-1" vertex="1">
          <mxGeometry x="180" y="540" width="120" height="60" as="geometry" />
        </mxCell>
      </root>
    </mxGraphModel>
  </diagram>
  <diagram name="MDM_PROSPECTOS_JURIDICOS_RESOLUTION" id="Qvk3QzEDkyTniveMLD3s">
    <mxGraphModel dx="1609" dy="1580" grid="1" gridSize="10" guides="1" tooltips="1" connect="1" arrows="1" fold="1" page="1" pageScale="1" pageWidth="827" pageHeight="1169" math="0" shadow="0">
      <root>
        <mxCell id="H3CtW9GNOkeXhSwJ5KN_-0" />
        <mxCell id="H3CtW9GNOkeXhSwJ5KN_-1" parent="H3CtW9GNOkeXhSwJ5KN_-0" />
        <mxCell id="H3CtW9GNOkeXhSwJ5KN_-2" value="MDM PROSPECTOS FISICOS RESOLUTION AUTOMATICA" style="rounded=0;whiteSpace=wrap;html=1;fontSize=8;align=left;verticalAlign=top;container=1;" vertex="1" parent="H3CtW9GNOkeXhSwJ5KN_-1">
          <mxGeometry x="-615" y="-380" width="2250" height="690" as="geometry" />
        </mxCell>
        <mxCell id="H3CtW9GNOkeXhSwJ5KN_-3" style="edgeStyle=orthogonalEdgeStyle;rounded=0;orthogonalLoop=1;jettySize=auto;html=1;" edge="1" parent="H3CtW9GNOkeXhSwJ5KN_-1" source="H3CtW9GNOkeXhSwJ5KN_-4" target="H3CtW9GNOkeXhSwJ5KN_-9">
          <mxGeometry relative="1" as="geometry" />
        </mxCell>
        <mxCell id="H3CtW9GNOkeXhSwJ5KN_-4" value="PROSPECTOS" style="rounded=1;whiteSpace=wrap;html=1;" vertex="1" parent="H3CtW9GNOkeXhSwJ5KN_-1">
          <mxGeometry x="-450" y="-260" width="120" height="60" as="geometry" />
        </mxCell>
        <mxCell id="H3CtW9GNOkeXhSwJ5KN_-5" value="N" style="edgeStyle=orthogonalEdgeStyle;rounded=0;orthogonalLoop=1;jettySize=auto;html=1;" edge="1" parent="H3CtW9GNOkeXhSwJ5KN_-1" source="H3CtW9GNOkeXhSwJ5KN_-7" target="H3CtW9GNOkeXhSwJ5KN_-47">
          <mxGeometry relative="1" as="geometry" />
        </mxCell>
        <mxCell id="H3CtW9GNOkeXhSwJ5KN_-6" value="S" style="edgeStyle=orthogonalEdgeStyle;rounded=0;orthogonalLoop=1;jettySize=auto;html=1;entryX=0.5;entryY=0;entryDx=0;entryDy=0;" edge="1" parent="H3CtW9GNOkeXhSwJ5KN_-1" source="H3CtW9GNOkeXhSwJ5KN_-7" target="H3CtW9GNOkeXhSwJ5KN_-15">
          <mxGeometry relative="1" as="geometry" />
        </mxCell>
        <mxCell id="H3CtW9GNOkeXhSwJ5KN_-7" value="Todo los campos DQ OK" style="rhombus;whiteSpace=wrap;html=1;fontSize=8;fillColor=#fff2cc;strokeColor=#d6b656;" vertex="1" parent="H3CtW9GNOkeXhSwJ5KN_-1">
          <mxGeometry x="40" y="-270" width="80" height="80" as="geometry" />
        </mxCell>
        <mxCell id="H3CtW9GNOkeXhSwJ5KN_-8" style="edgeStyle=orthogonalEdgeStyle;rounded=0;orthogonalLoop=1;jettySize=auto;html=1;" edge="1" parent="H3CtW9GNOkeXhSwJ5KN_-1" source="H3CtW9GNOkeXhSwJ5KN_-9" target="H3CtW9GNOkeXhSwJ5KN_-7">
          <mxGeometry relative="1" as="geometry" />
        </mxCell>
        <mxCell id="H3CtW9GNOkeXhSwJ5KN_-9" value="VERIFICAR REGLAS DQ" style="rounded=0;whiteSpace=wrap;html=1;fontSize=8;fillColor=#fff2cc;strokeColor=#d6b656;" vertex="1" parent="H3CtW9GNOkeXhSwJ5KN_-1">
          <mxGeometry x="-190" y="-260" width="120" height="60" as="geometry" />
        </mxCell>
        <mxCell id="H3CtW9GNOkeXhSwJ5KN_-10" style="edgeStyle=orthogonalEdgeStyle;rounded=0;orthogonalLoop=1;jettySize=auto;html=1;" edge="1" parent="H3CtW9GNOkeXhSwJ5KN_-1" source="H3CtW9GNOkeXhSwJ5KN_-11" target="H3CtW9GNOkeXhSwJ5KN_-21">
          <mxGeometry relative="1" as="geometry" />
        </mxCell>
        <mxCell id="H3CtW9GNOkeXhSwJ5KN_-11" value="Aplicar cambios Automaticos" style="rounded=0;whiteSpace=wrap;html=1;fontSize=8;fillColor=#fff2cc;strokeColor=#d6b656;" vertex="1" parent="H3CtW9GNOkeXhSwJ5KN_-1">
          <mxGeometry x="620" y="-260" width="120" height="60" as="geometry" />
        </mxCell>
        <mxCell id="H3CtW9GNOkeXhSwJ5KN_-12" style="edgeStyle=orthogonalEdgeStyle;rounded=0;orthogonalLoop=1;jettySize=auto;html=1;entryX=0;entryY=0.5;entryDx=0;entryDy=0;" edge="1" parent="H3CtW9GNOkeXhSwJ5KN_-1" source="H3CtW9GNOkeXhSwJ5KN_-13" target="H3CtW9GNOkeXhSwJ5KN_-11">
          <mxGeometry relative="1" as="geometry" />
        </mxCell>
        <mxCell id="H3CtW9GNOkeXhSwJ5KN_-13" value="addCRC_ANTES" style="rounded=0;whiteSpace=wrap;html=1;fontSize=8;fillColor=#fff2cc;strokeColor=#d6b656;" vertex="1" parent="H3CtW9GNOkeXhSwJ5KN_-1">
          <mxGeometry x="450" y="-260" width="120" height="60" as="geometry" />
        </mxCell>
        <mxCell id="H3CtW9GNOkeXhSwJ5KN_-14" value="añadir un campo hash con &lt;br&gt;todos los campos que se controlan/corrigen" style="text;html=1;resizable=0;autosize=1;align=center;verticalAlign=middle;points=[];fillColor=none;strokeColor=none;rounded=0;" vertex="1" parent="H3CtW9GNOkeXhSwJ5KN_-1">
          <mxGeometry x="385" y="-310" width="250" height="30" as="geometry" />
        </mxCell>
        <mxCell id="H3CtW9GNOkeXhSwJ5KN_-15" value="FIN" style="rounded=1;whiteSpace=wrap;html=1;" vertex="1" parent="H3CtW9GNOkeXhSwJ5KN_-1">
          <mxGeometry x="20" y="-90" width="120" height="60" as="geometry" />
        </mxCell>
        <mxCell id="H3CtW9GNOkeXhSwJ5KN_-16" style="edgeStyle=orthogonalEdgeStyle;rounded=0;orthogonalLoop=1;jettySize=auto;html=1;entryX=0;entryY=0.5;entryDx=0;entryDy=0;" edge="1" parent="H3CtW9GNOkeXhSwJ5KN_-1" source="H3CtW9GNOkeXhSwJ5KN_-19" target="H3CtW9GNOkeXhSwJ5KN_-26">
          <mxGeometry relative="1" as="geometry" />
        </mxCell>
        <mxCell id="H3CtW9GNOkeXhSwJ5KN_-17" value="N&lt;br&gt;" style="edgeLabel;html=1;align=center;verticalAlign=middle;resizable=0;points=[];" vertex="1" connectable="0" parent="H3CtW9GNOkeXhSwJ5KN_-16">
          <mxGeometry x="0.24" y="2" relative="1" as="geometry">
            <mxPoint as="offset" />
          </mxGeometry>
        </mxCell>
        <mxCell id="H3CtW9GNOkeXhSwJ5KN_-18" value="S" style="edgeStyle=orthogonalEdgeStyle;rounded=0;orthogonalLoop=1;jettySize=auto;html=1;" edge="1" parent="H3CtW9GNOkeXhSwJ5KN_-1" source="H3CtW9GNOkeXhSwJ5KN_-19" target="H3CtW9GNOkeXhSwJ5KN_-38">
          <mxGeometry relative="1" as="geometry" />
        </mxCell>
        <mxCell id="H3CtW9GNOkeXhSwJ5KN_-19" value="Todo los campos DQ OK&lt;br&gt;Y&lt;br&gt;addCRC_ANTES!=addCRC_DESPUES" style="rhombus;whiteSpace=wrap;html=1;fontSize=8;fillColor=#fff2cc;strokeColor=#d6b656;" vertex="1" parent="H3CtW9GNOkeXhSwJ5KN_-1">
          <mxGeometry x="1190" y="-270" width="80" height="80" as="geometry" />
        </mxCell>
        <mxCell id="H3CtW9GNOkeXhSwJ5KN_-20" style="edgeStyle=orthogonalEdgeStyle;rounded=0;orthogonalLoop=1;jettySize=auto;html=1;entryX=0;entryY=0.5;entryDx=0;entryDy=0;" edge="1" parent="H3CtW9GNOkeXhSwJ5KN_-1" source="H3CtW9GNOkeXhSwJ5KN_-21" target="H3CtW9GNOkeXhSwJ5KN_-23">
          <mxGeometry relative="1" as="geometry" />
        </mxCell>
        <mxCell id="H3CtW9GNOkeXhSwJ5KN_-21" value="VERIFICAR REGLAS DQ" style="rounded=0;whiteSpace=wrap;html=1;fontSize=8;fillColor=#fff2cc;strokeColor=#d6b656;" vertex="1" parent="H3CtW9GNOkeXhSwJ5KN_-1">
          <mxGeometry x="810" y="-260" width="120" height="60" as="geometry" />
        </mxCell>
        <mxCell id="H3CtW9GNOkeXhSwJ5KN_-22" style="edgeStyle=orthogonalEdgeStyle;rounded=0;orthogonalLoop=1;jettySize=auto;html=1;entryX=0;entryY=0.5;entryDx=0;entryDy=0;" edge="1" parent="H3CtW9GNOkeXhSwJ5KN_-1" source="H3CtW9GNOkeXhSwJ5KN_-23" target="H3CtW9GNOkeXhSwJ5KN_-19">
          <mxGeometry relative="1" as="geometry" />
        </mxCell>
        <mxCell id="H3CtW9GNOkeXhSwJ5KN_-23" value="addCRC_DESPUES" style="rounded=0;whiteSpace=wrap;html=1;fontSize=8;fillColor=#fff2cc;strokeColor=#d6b656;" vertex="1" parent="H3CtW9GNOkeXhSwJ5KN_-1">
          <mxGeometry x="970" y="-260" width="120" height="60" as="geometry" />
        </mxCell>
        <mxCell id="H3CtW9GNOkeXhSwJ5KN_-24" style="edgeStyle=orthogonalEdgeStyle;rounded=0;orthogonalLoop=1;jettySize=auto;html=1;entryX=0.5;entryY=0;entryDx=0;entryDy=0;" edge="1" parent="H3CtW9GNOkeXhSwJ5KN_-1" source="H3CtW9GNOkeXhSwJ5KN_-25" target="H3CtW9GNOkeXhSwJ5KN_-54">
          <mxGeometry relative="1" as="geometry" />
        </mxCell>
        <mxCell id="H3CtW9GNOkeXhSwJ5KN_-25" value="API updatePerson con los datos corregidos" style="rounded=0;whiteSpace=wrap;html=1;fontSize=8;fillColor=#fff2cc;strokeColor=#d6b656;" vertex="1" parent="H3CtW9GNOkeXhSwJ5KN_-1">
          <mxGeometry x="1170" width="120" height="60" as="geometry" />
        </mxCell>
        <mxCell id="H3CtW9GNOkeXhSwJ5KN_-26" value="Mandar la persona al TDS para corrección manual" style="rounded=0;whiteSpace=wrap;html=1;fontSize=8;fillColor=#fff2cc;strokeColor=#d6b656;" vertex="1" parent="H3CtW9GNOkeXhSwJ5KN_-1">
          <mxGeometry x="1420" y="-260" width="120" height="60" as="geometry" />
        </mxCell>
        <mxCell id="H3CtW9GNOkeXhSwJ5KN_-27" style="edgeStyle=orthogonalEdgeStyle;rounded=0;orthogonalLoop=1;jettySize=auto;html=1;exitX=0.5;exitY=1;exitDx=0;exitDy=0;" edge="1" parent="H3CtW9GNOkeXhSwJ5KN_-1" source="H3CtW9GNOkeXhSwJ5KN_-26" target="H3CtW9GNOkeXhSwJ5KN_-26">
          <mxGeometry relative="1" as="geometry" />
        </mxCell>
        <mxCell id="H3CtW9GNOkeXhSwJ5KN_-29" value="añadir un campo hash con &lt;br&gt;todos los campos que se controlan/corrigen" style="text;html=1;resizable=0;autosize=1;align=center;verticalAlign=middle;points=[];fillColor=none;strokeColor=none;rounded=0;" vertex="1" parent="H3CtW9GNOkeXhSwJ5KN_-1">
          <mxGeometry x="770" y="-325" width="250" height="30" as="geometry" />
        </mxCell>
        <mxCell id="H3CtW9GNOkeXhSwJ5KN_-30" value="MDM PROSPECTOS FISICOS RESOLUTION MANUAL" style="rounded=0;whiteSpace=wrap;html=1;fontSize=8;align=left;verticalAlign=top;" vertex="1" parent="H3CtW9GNOkeXhSwJ5KN_-1">
          <mxGeometry x="-560" y="460" width="880" height="230" as="geometry" />
        </mxCell>
        <mxCell id="H3CtW9GNOkeXhSwJ5KN_-31" style="edgeStyle=orthogonalEdgeStyle;rounded=0;orthogonalLoop=1;jettySize=auto;html=1;entryX=0;entryY=0.5;entryDx=0;entryDy=0;" edge="1" parent="H3CtW9GNOkeXhSwJ5KN_-1" source="H3CtW9GNOkeXhSwJ5KN_-32" target="H3CtW9GNOkeXhSwJ5KN_-36">
          <mxGeometry relative="1" as="geometry" />
        </mxCell>
        <mxCell id="H3CtW9GNOkeXhSwJ5KN_-32" value="Recuperar las personas corregidas manualemente desde TDS" style="rounded=0;whiteSpace=wrap;html=1;fontSize=8;fillColor=#fff2cc;strokeColor=#d6b656;" vertex="1" parent="H3CtW9GNOkeXhSwJ5KN_-1">
          <mxGeometry x="-550" y="540" width="120" height="60" as="geometry" />
        </mxCell>
        <mxCell id="H3CtW9GNOkeXhSwJ5KN_-33" style="edgeStyle=orthogonalEdgeStyle;rounded=0;orthogonalLoop=1;jettySize=auto;html=1;entryX=0;entryY=0.5;entryDx=0;entryDy=0;" edge="1" parent="H3CtW9GNOkeXhSwJ5KN_-1" source="H3CtW9GNOkeXhSwJ5KN_-34" target="H3CtW9GNOkeXhSwJ5KN_-57">
          <mxGeometry relative="1" as="geometry" />
        </mxCell>
        <mxCell id="H3CtW9GNOkeXhSwJ5KN_-34" value="API updatePerson con los datos corregidos" style="rounded=0;whiteSpace=wrap;html=1;fontSize=8;fillColor=#fff2cc;strokeColor=#d6b656;" vertex="1" parent="H3CtW9GNOkeXhSwJ5KN_-1">
          <mxGeometry x="-180" y="540" width="120" height="60" as="geometry" />
        </mxCell>
        <mxCell id="H3CtW9GNOkeXhSwJ5KN_-35" style="edgeStyle=orthogonalEdgeStyle;rounded=0;orthogonalLoop=1;jettySize=auto;html=1;" edge="1" parent="H3CtW9GNOkeXhSwJ5KN_-1" source="H3CtW9GNOkeXhSwJ5KN_-36" target="H3CtW9GNOkeXhSwJ5KN_-34">
          <mxGeometry relative="1" as="geometry" />
        </mxCell>
        <mxCell id="H3CtW9GNOkeXhSwJ5KN_-36" value="Mappear los datos corregidos" style="rounded=0;whiteSpace=wrap;html=1;fontSize=8;fillColor=#fff2cc;strokeColor=#d6b656;" vertex="1" parent="H3CtW9GNOkeXhSwJ5KN_-1">
          <mxGeometry x="-365" y="540" width="120" height="60" as="geometry" />
        </mxCell>
        <mxCell id="H3CtW9GNOkeXhSwJ5KN_-37" style="edgeStyle=orthogonalEdgeStyle;rounded=0;orthogonalLoop=1;jettySize=auto;html=1;" edge="1" parent="H3CtW9GNOkeXhSwJ5KN_-1" source="H3CtW9GNOkeXhSwJ5KN_-38" target="H3CtW9GNOkeXhSwJ5KN_-25">
          <mxGeometry relative="1" as="geometry" />
        </mxCell>
        <mxCell id="H3CtW9GNOkeXhSwJ5KN_-38" value="Mappear los datos corregidos" style="rounded=0;whiteSpace=wrap;html=1;fontSize=8;fillColor=#fff2cc;strokeColor=#d6b656;" vertex="1" parent="H3CtW9GNOkeXhSwJ5KN_-1">
          <mxGeometry x="1170" y="-130" width="120" height="60" as="geometry" />
        </mxCell>
        <mxCell id="H3CtW9GNOkeXhSwJ5KN_-39" value="//Usar Talend Data Mapper" style="text;html=1;resizable=0;autosize=1;align=center;verticalAlign=middle;points=[];fillColor=none;strokeColor=none;rounded=0;" vertex="1" parent="H3CtW9GNOkeXhSwJ5KN_-1">
          <mxGeometry x="1320" y="-110" width="160" height="20" as="geometry" />
        </mxCell>
        <mxCell id="H3CtW9GNOkeXhSwJ5KN_-40" value="//Usar tRestClient" style="text;html=1;resizable=0;autosize=1;align=center;verticalAlign=middle;points=[];fillColor=none;strokeColor=none;rounded=0;" vertex="1" parent="H3CtW9GNOkeXhSwJ5KN_-1">
          <mxGeometry x="1320" y="10" width="110" height="20" as="geometry" />
        </mxCell>
        <mxCell id="H3CtW9GNOkeXhSwJ5KN_-41" value="//Usar Talend Data Mapper" style="text;html=1;resizable=0;autosize=1;align=center;verticalAlign=middle;points=[];fillColor=none;strokeColor=none;rounded=0;" vertex="1" parent="H3CtW9GNOkeXhSwJ5KN_-1">
          <mxGeometry x="-385" y="610" width="160" height="20" as="geometry" />
        </mxCell>
        <mxCell id="H3CtW9GNOkeXhSwJ5KN_-42" value="//Usar tRestClient" style="text;html=1;resizable=0;autosize=1;align=center;verticalAlign=middle;points=[];fillColor=none;strokeColor=none;rounded=0;" vertex="1" parent="H3CtW9GNOkeXhSwJ5KN_-1">
          <mxGeometry x="-170" y="610" width="110" height="20" as="geometry" />
        </mxCell>
        <mxCell id="H3CtW9GNOkeXhSwJ5KN_-43" value="indicadorPersona&amp;nbsp;: Prospect&lt;br&gt;tipoPersona: 0&lt;br&gt;fechaGrabacionODH &amp;gt; ${today}" style="text;html=1;resizable=0;autosize=1;align=center;verticalAlign=middle;points=[];fillColor=none;strokeColor=none;rounded=0;" vertex="1" parent="H3CtW9GNOkeXhSwJ5KN_-1">
          <mxGeometry x="-480" y="-195" width="180" height="50" as="geometry" />
        </mxCell>
        <mxCell id="H3CtW9GNOkeXhSwJ5KN_-44" value="campaña: ProspectosJuridicaResolucion" style="text;html=1;resizable=0;autosize=1;align=center;verticalAlign=middle;points=[];fillColor=none;strokeColor=none;rounded=0;" vertex="1" parent="H3CtW9GNOkeXhSwJ5KN_-1">
          <mxGeometry x="1365" y="-195" width="230" height="20" as="geometry" />
        </mxCell>
        <mxCell id="H3CtW9GNOkeXhSwJ5KN_-45" style="edgeStyle=orthogonalEdgeStyle;rounded=0;orthogonalLoop=1;jettySize=auto;html=1;entryX=0;entryY=0.5;entryDx=0;entryDy=0;" edge="1" parent="H3CtW9GNOkeXhSwJ5KN_-1" source="H3CtW9GNOkeXhSwJ5KN_-47" target="H3CtW9GNOkeXhSwJ5KN_-13">
          <mxGeometry relative="1" as="geometry" />
        </mxCell>
        <mxCell id="H3CtW9GNOkeXhSwJ5KN_-46" style="edgeStyle=orthogonalEdgeStyle;rounded=0;orthogonalLoop=1;jettySize=auto;html=1;entryX=0.5;entryY=0;entryDx=0;entryDy=0;" edge="1" parent="H3CtW9GNOkeXhSwJ5KN_-1" source="H3CtW9GNOkeXhSwJ5KN_-47" target="H3CtW9GNOkeXhSwJ5KN_-49">
          <mxGeometry relative="1" as="geometry" />
        </mxCell>
        <mxCell id="H3CtW9GNOkeXhSwJ5KN_-47" value="Marca el registro con las reglas no complidas" style="rounded=0;whiteSpace=wrap;html=1;fontSize=8;fillColor=#fff2cc;strokeColor=#d6b656;" vertex="1" parent="H3CtW9GNOkeXhSwJ5KN_-1">
          <mxGeometry x="230" y="-260" width="120" height="60" as="geometry" />
        </mxCell>
        <mxCell id="H3CtW9GNOkeXhSwJ5KN_-48" style="edgeStyle=orthogonalEdgeStyle;rounded=0;orthogonalLoop=1;jettySize=auto;html=1;entryX=0.5;entryY=0;entryDx=0;entryDy=0;" edge="1" parent="H3CtW9GNOkeXhSwJ5KN_-1" source="H3CtW9GNOkeXhSwJ5KN_-49" target="H3CtW9GNOkeXhSwJ5KN_-50">
          <mxGeometry relative="1" as="geometry" />
        </mxCell>
        <mxCell id="H3CtW9GNOkeXhSwJ5KN_-49" value="escribir el registro dentro de un csv de log" style="rounded=0;whiteSpace=wrap;html=1;fontSize=8;fillColor=#fff2cc;strokeColor=#d6b656;" vertex="1" parent="H3CtW9GNOkeXhSwJ5KN_-1">
          <mxGeometry x="230" y="-170" width="120" height="60" as="geometry" />
        </mxCell>
        <mxCell id="H3CtW9GNOkeXhSwJ5KN_-50" value="mandar mail con registros incorrectos" style="rounded=0;whiteSpace=wrap;html=1;fontSize=8;fillColor=#fff2cc;strokeColor=#d6b656;" vertex="1" parent="H3CtW9GNOkeXhSwJ5KN_-1">
          <mxGeometry x="230" y="-80" width="120" height="60" as="geometry" />
        </mxCell>
        <mxCell id="H3CtW9GNOkeXhSwJ5KN_-51" value="Modulo a definir:&lt;br&gt;-TRIM de los nombres appelidos&lt;br&gt;-Gestion caratceres raros nombres,appelidos&lt;br&gt;-Borrar espacio correos" style="text;html=1;resizable=0;autosize=1;align=center;verticalAlign=middle;points=[];fillColor=none;strokeColor=none;rounded=0;" vertex="1" parent="H3CtW9GNOkeXhSwJ5KN_-1">
          <mxGeometry x="565" y="-190" width="260" height="60" as="geometry" />
        </mxCell>
        <mxCell id="H3CtW9GNOkeXhSwJ5KN_-52" value="//Usar tRestClient" style="text;html=1;resizable=0;autosize=1;align=center;verticalAlign=middle;points=[];fillColor=none;strokeColor=none;rounded=0;" vertex="1" parent="H3CtW9GNOkeXhSwJ5KN_-1">
          <mxGeometry x="2260" y="280" width="110" height="20" as="geometry" />
        </mxCell>
        <mxCell id="H3CtW9GNOkeXhSwJ5KN_-53" value="" style="edgeStyle=orthogonalEdgeStyle;rounded=0;orthogonalLoop=1;jettySize=auto;html=1;" edge="1" parent="H3CtW9GNOkeXhSwJ5KN_-1" source="H3CtW9GNOkeXhSwJ5KN_-54" target="H3CtW9GNOkeXhSwJ5KN_-55">
          <mxGeometry relative="1" as="geometry" />
        </mxCell>
        <mxCell id="H3CtW9GNOkeXhSwJ5KN_-54" value="escribir el registro dentro de un csv de log" style="rounded=0;whiteSpace=wrap;html=1;fontSize=8;fillColor=#fff2cc;strokeColor=#d6b656;" vertex="1" parent="H3CtW9GNOkeXhSwJ5KN_-1">
          <mxGeometry x="1170" y="100" width="120" height="60" as="geometry" />
        </mxCell>
        <mxCell id="H3CtW9GNOkeXhSwJ5KN_-55" value="mandar mail con registros incorrectos" style="rounded=0;whiteSpace=wrap;html=1;fontSize=8;fillColor=#fff2cc;strokeColor=#d6b656;" vertex="1" parent="H3CtW9GNOkeXhSwJ5KN_-1">
          <mxGeometry x="1170" y="190" width="120" height="60" as="geometry" />
        </mxCell>
        <mxCell id="H3CtW9GNOkeXhSwJ5KN_-56" style="edgeStyle=orthogonalEdgeStyle;rounded=0;orthogonalLoop=1;jettySize=auto;html=1;" edge="1" parent="H3CtW9GNOkeXhSwJ5KN_-1" source="H3CtW9GNOkeXhSwJ5KN_-57" target="H3CtW9GNOkeXhSwJ5KN_-58">
          <mxGeometry relative="1" as="geometry" />
        </mxCell>
        <mxCell id="H3CtW9GNOkeXhSwJ5KN_-57" value="escribir el registro dentro de un csv de log" style="rounded=0;whiteSpace=wrap;html=1;fontSize=8;fillColor=#fff2cc;strokeColor=#d6b656;" vertex="1" parent="H3CtW9GNOkeXhSwJ5KN_-1">
          <mxGeometry y="540" width="120" height="60" as="geometry" />
        </mxCell>
        <mxCell id="H3CtW9GNOkeXhSwJ5KN_-58" value="mandar mail con registros incorrectos" style="rounded=0;whiteSpace=wrap;html=1;fontSize=8;fillColor=#fff2cc;strokeColor=#d6b656;" vertex="1" parent="H3CtW9GNOkeXhSwJ5KN_-1">
          <mxGeometry x="180" y="540" width="120" height="60" as="geometry" />
        </mxCell>
        <mxCell id="rUGNUExdPQFMZP5SgYzG-0" value="campos a projectar:&lt;br&gt;idPnODH&lt;br&gt;codigoValidez&lt;br&gt;tipoPersona&lt;br&gt;datosIdentificativos.datosPersonaJuridica.razonsocial&lt;br&gt;datosIdentificativos.numeroIdentidad&lt;br&gt;aplicacionGrabacion&lt;br&gt;datosIdentificativos.datosContactoCliente.email&lt;br&gt;datosIdentificativos.datosContactoCliente.telefonoMovil" style="text;html=1;resizable=0;autosize=1;align=center;verticalAlign=middle;points=[];fillColor=none;strokeColor=none;rounded=0;" vertex="1" parent="H3CtW9GNOkeXhSwJ5KN_-1">
          <mxGeometry x="-545" y="-70" width="310" height="130" as="geometry" />
        </mxCell>
      </root>
    </mxGraphModel>
  </diagram>
  <diagram name="MDM_CLIENTES_FISICOS_RESOLUTION" id="Dm3XQ-D71w9TiNi-8Q2f">
    <mxGraphModel dx="1609" dy="1580" grid="1" gridSize="10" guides="1" tooltips="1" connect="1" arrows="1" fold="1" page="1" pageScale="1" pageWidth="827" pageHeight="1169" math="0" shadow="0">
      <root>
        <mxCell id="hsbkeRTYOtjVJKc5d7au-0" />
        <mxCell id="hsbkeRTYOtjVJKc5d7au-1" parent="hsbkeRTYOtjVJKc5d7au-0" />
        <mxCell id="hsbkeRTYOtjVJKc5d7au-2" value="MDM CLIENTES FISICOS RESOLUTION AUTOMATICA" style="rounded=0;whiteSpace=wrap;html=1;fontSize=8;align=left;verticalAlign=top;container=1;" parent="hsbkeRTYOtjVJKc5d7au-1" vertex="1">
          <mxGeometry x="-780" y="-390" width="2250" height="690" as="geometry" />
        </mxCell>
        <mxCell id="hsbkeRTYOtjVJKc5d7au-3" style="edgeStyle=orthogonalEdgeStyle;rounded=0;orthogonalLoop=1;jettySize=auto;html=1;" parent="hsbkeRTYOtjVJKc5d7au-1" source="hsbkeRTYOtjVJKc5d7au-4" target="hsbkeRTYOtjVJKc5d7au-9" edge="1">
          <mxGeometry relative="1" as="geometry" />
        </mxCell>
        <mxCell id="hsbkeRTYOtjVJKc5d7au-4" value="Clientes" style="rounded=1;whiteSpace=wrap;html=1;" parent="hsbkeRTYOtjVJKc5d7au-1" vertex="1">
          <mxGeometry x="-450" y="-260" width="120" height="60" as="geometry" />
        </mxCell>
        <mxCell id="hsbkeRTYOtjVJKc5d7au-5" value="N" style="edgeStyle=orthogonalEdgeStyle;rounded=0;orthogonalLoop=1;jettySize=auto;html=1;" parent="hsbkeRTYOtjVJKc5d7au-1" source="hsbkeRTYOtjVJKc5d7au-7" target="hsbkeRTYOtjVJKc5d7au-47" edge="1">
          <mxGeometry relative="1" as="geometry" />
        </mxCell>
        <mxCell id="hsbkeRTYOtjVJKc5d7au-6" value="S" style="edgeStyle=orthogonalEdgeStyle;rounded=0;orthogonalLoop=1;jettySize=auto;html=1;entryX=0.5;entryY=0;entryDx=0;entryDy=0;" parent="hsbkeRTYOtjVJKc5d7au-1" source="hsbkeRTYOtjVJKc5d7au-7" target="hsbkeRTYOtjVJKc5d7au-15" edge="1">
          <mxGeometry relative="1" as="geometry" />
        </mxCell>
        <mxCell id="hsbkeRTYOtjVJKc5d7au-7" value="Todo los campos DQ OK" style="rhombus;whiteSpace=wrap;html=1;fontSize=8;fillColor=#fff2cc;strokeColor=#d6b656;" parent="hsbkeRTYOtjVJKc5d7au-1" vertex="1">
          <mxGeometry x="40" y="-270" width="80" height="80" as="geometry" />
        </mxCell>
        <mxCell id="hsbkeRTYOtjVJKc5d7au-8" style="edgeStyle=orthogonalEdgeStyle;rounded=0;orthogonalLoop=1;jettySize=auto;html=1;" parent="hsbkeRTYOtjVJKc5d7au-1" source="hsbkeRTYOtjVJKc5d7au-9" target="hsbkeRTYOtjVJKc5d7au-7" edge="1">
          <mxGeometry relative="1" as="geometry" />
        </mxCell>
        <mxCell id="hsbkeRTYOtjVJKc5d7au-9" value="VERIFICAR REGLAS DQ" style="rounded=0;whiteSpace=wrap;html=1;fontSize=8;fillColor=#fff2cc;strokeColor=#d6b656;" parent="hsbkeRTYOtjVJKc5d7au-1" vertex="1">
          <mxGeometry x="-190" y="-260" width="120" height="60" as="geometry" />
        </mxCell>
        <mxCell id="hsbkeRTYOtjVJKc5d7au-10" style="edgeStyle=orthogonalEdgeStyle;rounded=0;orthogonalLoop=1;jettySize=auto;html=1;" parent="hsbkeRTYOtjVJKc5d7au-1" source="hsbkeRTYOtjVJKc5d7au-11" target="hsbkeRTYOtjVJKc5d7au-21" edge="1">
          <mxGeometry relative="1" as="geometry" />
        </mxCell>
        <mxCell id="hsbkeRTYOtjVJKc5d7au-11" value="Aplicar cambios Automaticos" style="rounded=0;whiteSpace=wrap;html=1;fontSize=8;fillColor=#fff2cc;strokeColor=#d6b656;" parent="hsbkeRTYOtjVJKc5d7au-1" vertex="1">
          <mxGeometry x="620" y="-260" width="120" height="60" as="geometry" />
        </mxCell>
        <mxCell id="hsbkeRTYOtjVJKc5d7au-12" style="edgeStyle=orthogonalEdgeStyle;rounded=0;orthogonalLoop=1;jettySize=auto;html=1;entryX=0;entryY=0.5;entryDx=0;entryDy=0;" parent="hsbkeRTYOtjVJKc5d7au-1" source="hsbkeRTYOtjVJKc5d7au-13" target="hsbkeRTYOtjVJKc5d7au-11" edge="1">
          <mxGeometry relative="1" as="geometry" />
        </mxCell>
        <mxCell id="hsbkeRTYOtjVJKc5d7au-13" value="addCRC_ANTES" style="rounded=0;whiteSpace=wrap;html=1;fontSize=8;fillColor=#fff2cc;strokeColor=#d6b656;" parent="hsbkeRTYOtjVJKc5d7au-1" vertex="1">
          <mxGeometry x="450" y="-260" width="120" height="60" as="geometry" />
        </mxCell>
        <mxCell id="hsbkeRTYOtjVJKc5d7au-14" value="añadir un campo hash con &lt;br&gt;todos los campos que se controlan/corrigen" style="text;html=1;resizable=0;autosize=1;align=center;verticalAlign=middle;points=[];fillColor=none;strokeColor=none;rounded=0;" parent="hsbkeRTYOtjVJKc5d7au-1" vertex="1">
          <mxGeometry x="385" y="-310" width="250" height="30" as="geometry" />
        </mxCell>
        <mxCell id="hsbkeRTYOtjVJKc5d7au-15" value="FIN" style="rounded=1;whiteSpace=wrap;html=1;" parent="hsbkeRTYOtjVJKc5d7au-1" vertex="1">
          <mxGeometry x="20" y="-90" width="120" height="60" as="geometry" />
        </mxCell>
        <mxCell id="hsbkeRTYOtjVJKc5d7au-16" style="edgeStyle=orthogonalEdgeStyle;rounded=0;orthogonalLoop=1;jettySize=auto;html=1;entryX=0;entryY=0.5;entryDx=0;entryDy=0;" parent="hsbkeRTYOtjVJKc5d7au-1" source="hsbkeRTYOtjVJKc5d7au-19" target="hsbkeRTYOtjVJKc5d7au-26" edge="1">
          <mxGeometry relative="1" as="geometry" />
        </mxCell>
        <mxCell id="hsbkeRTYOtjVJKc5d7au-17" value="N&lt;br&gt;" style="edgeLabel;html=1;align=center;verticalAlign=middle;resizable=0;points=[];" parent="hsbkeRTYOtjVJKc5d7au-16" vertex="1" connectable="0">
          <mxGeometry x="0.24" y="2" relative="1" as="geometry">
            <mxPoint as="offset" />
          </mxGeometry>
        </mxCell>
        <mxCell id="hsbkeRTYOtjVJKc5d7au-18" value="S" style="edgeStyle=orthogonalEdgeStyle;rounded=0;orthogonalLoop=1;jettySize=auto;html=1;" parent="hsbkeRTYOtjVJKc5d7au-1" source="hsbkeRTYOtjVJKc5d7au-19" target="hsbkeRTYOtjVJKc5d7au-38" edge="1">
          <mxGeometry relative="1" as="geometry" />
        </mxCell>
        <mxCell id="hsbkeRTYOtjVJKc5d7au-19" value="Todo los campos DQ OK&lt;br&gt;Y&lt;br&gt;addCRC_ANTES!=addCRC_DESPUES" style="rhombus;whiteSpace=wrap;html=1;fontSize=8;fillColor=#fff2cc;strokeColor=#d6b656;" parent="hsbkeRTYOtjVJKc5d7au-1" vertex="1">
          <mxGeometry x="1190" y="-270" width="80" height="80" as="geometry" />
        </mxCell>
        <mxCell id="hsbkeRTYOtjVJKc5d7au-20" style="edgeStyle=orthogonalEdgeStyle;rounded=0;orthogonalLoop=1;jettySize=auto;html=1;entryX=0;entryY=0.5;entryDx=0;entryDy=0;" parent="hsbkeRTYOtjVJKc5d7au-1" source="hsbkeRTYOtjVJKc5d7au-21" target="hsbkeRTYOtjVJKc5d7au-23" edge="1">
          <mxGeometry relative="1" as="geometry" />
        </mxCell>
        <mxCell id="hsbkeRTYOtjVJKc5d7au-21" value="VERIFICAR REGLAS DQ" style="rounded=0;whiteSpace=wrap;html=1;fontSize=8;fillColor=#fff2cc;strokeColor=#d6b656;" parent="hsbkeRTYOtjVJKc5d7au-1" vertex="1">
          <mxGeometry x="810" y="-260" width="120" height="60" as="geometry" />
        </mxCell>
        <mxCell id="hsbkeRTYOtjVJKc5d7au-22" style="edgeStyle=orthogonalEdgeStyle;rounded=0;orthogonalLoop=1;jettySize=auto;html=1;entryX=0;entryY=0.5;entryDx=0;entryDy=0;" parent="hsbkeRTYOtjVJKc5d7au-1" source="hsbkeRTYOtjVJKc5d7au-23" target="hsbkeRTYOtjVJKc5d7au-19" edge="1">
          <mxGeometry relative="1" as="geometry" />
        </mxCell>
        <mxCell id="hsbkeRTYOtjVJKc5d7au-23" value="addCRC_DESPUES" style="rounded=0;whiteSpace=wrap;html=1;fontSize=8;fillColor=#fff2cc;strokeColor=#d6b656;" parent="hsbkeRTYOtjVJKc5d7au-1" vertex="1">
          <mxGeometry x="970" y="-260" width="120" height="60" as="geometry" />
        </mxCell>
        <mxCell id="hsbkeRTYOtjVJKc5d7au-24" style="edgeStyle=orthogonalEdgeStyle;rounded=0;orthogonalLoop=1;jettySize=auto;html=1;entryX=0.5;entryY=0;entryDx=0;entryDy=0;" parent="hsbkeRTYOtjVJKc5d7au-1" source="hsbkeRTYOtjVJKc5d7au-25" target="hsbkeRTYOtjVJKc5d7au-54" edge="1">
          <mxGeometry relative="1" as="geometry" />
        </mxCell>
        <mxCell id="hsbkeRTYOtjVJKc5d7au-25" value="API updatePerson con conciliacionHost=1" style="rounded=0;whiteSpace=wrap;html=1;fontSize=8;fillColor=#fff2cc;strokeColor=#d6b656;" parent="hsbkeRTYOtjVJKc5d7au-1" vertex="1">
          <mxGeometry x="1170" width="120" height="60" as="geometry" />
        </mxCell>
        <mxCell id="hsbkeRTYOtjVJKc5d7au-26" value="Mandar la persona al TDS para corrección manual" style="rounded=0;whiteSpace=wrap;html=1;fontSize=8;fillColor=#fff2cc;strokeColor=#d6b656;" parent="hsbkeRTYOtjVJKc5d7au-1" vertex="1">
          <mxGeometry x="1420" y="-260" width="120" height="60" as="geometry" />
        </mxCell>
        <mxCell id="hsbkeRTYOtjVJKc5d7au-27" style="edgeStyle=orthogonalEdgeStyle;rounded=0;orthogonalLoop=1;jettySize=auto;html=1;exitX=0.5;exitY=1;exitDx=0;exitDy=0;" parent="hsbkeRTYOtjVJKc5d7au-1" source="hsbkeRTYOtjVJKc5d7au-26" target="hsbkeRTYOtjVJKc5d7au-26" edge="1">
          <mxGeometry relative="1" as="geometry" />
        </mxCell>
        <mxCell id="hsbkeRTYOtjVJKc5d7au-28" value="campos a projectar:&lt;br&gt;idPnODH&lt;br&gt;idenpn&lt;br&gt;codigoValidez&lt;br&gt;tipoPersona&lt;br&gt;fechaAntiguedadCliente&lt;br&gt;autorGrabacion&lt;br&gt;version&lt;br&gt;datosIdentificativos.datosPersonaFisica.nombre&lt;br&gt;datosIdentificativos.datosPersonaFisica.primerApellido&lt;br&gt;datosIdentificativos.datosPersonaFisica.segundoApellido&lt;br&gt;datosIdentificativos.datosPersonaFisica.codigoGenero&lt;br&gt;datosIdentificativos.datosPersonaFisica.fechaNacimiento&lt;br&gt;datosIdentificativos.datosPersonaFisica.codigoNivelIngresos&lt;br&gt;datosIdentificativos.datosPersonaFisica.codigoEstadoCivil&lt;br&gt;datosIdentificativos.datosPersonaFisica.codigoNumeroHijos&lt;br&gt;datosIdentificativos.datosPersonaFisica.codigoProfesion&lt;br&gt;datosIdentificativos.datosPersonaFisica.codigoNivelEstudios&lt;br&gt;datosIdentificativos.datosPersonaFisica.codigoNacionalidad&lt;br&gt;datosIdentificativos.datosPersonaFisica.codigoPaisResidenciaFiscal&lt;br&gt;datosIdentificativos.datosPersonaFisica.codigoRegimenSeguridadSocial&lt;br&gt;datosIdentificativos.datosPersonaFisica.codigoLenguaCorrespondencia&lt;br&gt;datosIdentificativos.numeroIdentidad" style="text;html=1;resizable=0;autosize=1;align=center;verticalAlign=middle;points=[];fillColor=none;strokeColor=none;rounded=0;" parent="hsbkeRTYOtjVJKc5d7au-1" vertex="1">
          <mxGeometry x="-590" y="-80" width="400" height="330" as="geometry" />
        </mxCell>
        <mxCell id="hsbkeRTYOtjVJKc5d7au-30" value="MDM CLIENTES FISICOS RESOLUTION MANUAL" style="rounded=0;whiteSpace=wrap;html=1;fontSize=8;align=left;verticalAlign=top;" parent="hsbkeRTYOtjVJKc5d7au-1" vertex="1">
          <mxGeometry x="-805" y="505" width="1275" height="265" as="geometry" />
        </mxCell>
        <mxCell id="hsbkeRTYOtjVJKc5d7au-29" value="añadir un campo hash con &lt;br&gt;todos los campos que se controlan/corrigen" style="text;html=1;resizable=0;autosize=1;align=center;verticalAlign=middle;points=[];fillColor=none;strokeColor=none;rounded=0;" parent="hsbkeRTYOtjVJKc5d7au-1" vertex="1">
          <mxGeometry x="770" y="-325" width="250" height="30" as="geometry" />
        </mxCell>
        <mxCell id="eI0pB5PgafSnsDXDGPQ6-1" style="edgeStyle=orthogonalEdgeStyle;rounded=0;orthogonalLoop=1;jettySize=auto;html=1;" edge="1" parent="hsbkeRTYOtjVJKc5d7au-1" source="hsbkeRTYOtjVJKc5d7au-32" target="eI0pB5PgafSnsDXDGPQ6-0">
          <mxGeometry relative="1" as="geometry" />
        </mxCell>
        <mxCell id="hsbkeRTYOtjVJKc5d7au-32" value="Recuperar las personas corregidas manualemente desde TDS" style="rounded=0;whiteSpace=wrap;html=1;fontSize=8;fillColor=#fff2cc;strokeColor=#d6b656;" parent="hsbkeRTYOtjVJKc5d7au-1" vertex="1">
          <mxGeometry x="-760" y="540" width="120" height="60" as="geometry" />
        </mxCell>
        <mxCell id="hsbkeRTYOtjVJKc5d7au-33" style="edgeStyle=orthogonalEdgeStyle;rounded=0;orthogonalLoop=1;jettySize=auto;html=1;entryX=0;entryY=0.5;entryDx=0;entryDy=0;" parent="hsbkeRTYOtjVJKc5d7au-1" source="hsbkeRTYOtjVJKc5d7au-34" target="hsbkeRTYOtjVJKc5d7au-57" edge="1">
          <mxGeometry relative="1" as="geometry" />
        </mxCell>
        <mxCell id="hsbkeRTYOtjVJKc5d7au-34" value="API updatePerson con los datos corregidos" style="rounded=0;whiteSpace=wrap;html=1;fontSize=8;fillColor=#fff2cc;strokeColor=#d6b656;" parent="hsbkeRTYOtjVJKc5d7au-1" vertex="1">
          <mxGeometry x="-67.5" y="540" width="120" height="60" as="geometry" />
        </mxCell>
        <mxCell id="hsbkeRTYOtjVJKc5d7au-35" style="edgeStyle=orthogonalEdgeStyle;rounded=0;orthogonalLoop=1;jettySize=auto;html=1;" parent="hsbkeRTYOtjVJKc5d7au-1" source="hsbkeRTYOtjVJKc5d7au-36" target="hsbkeRTYOtjVJKc5d7au-34" edge="1">
          <mxGeometry relative="1" as="geometry" />
        </mxCell>
        <mxCell id="hsbkeRTYOtjVJKc5d7au-36" value="Mappear los datos corregidos" style="rounded=0;whiteSpace=wrap;html=1;fontSize=8;fillColor=#fff2cc;strokeColor=#d6b656;" parent="hsbkeRTYOtjVJKc5d7au-1" vertex="1">
          <mxGeometry x="-252.5" y="540" width="120" height="60" as="geometry" />
        </mxCell>
        <mxCell id="hsbkeRTYOtjVJKc5d7au-37" style="edgeStyle=orthogonalEdgeStyle;rounded=0;orthogonalLoop=1;jettySize=auto;html=1;" parent="hsbkeRTYOtjVJKc5d7au-1" source="hsbkeRTYOtjVJKc5d7au-38" target="hsbkeRTYOtjVJKc5d7au-25" edge="1">
          <mxGeometry relative="1" as="geometry" />
        </mxCell>
        <mxCell id="hsbkeRTYOtjVJKc5d7au-38" value="Mappear los datos corregidos" style="rounded=0;whiteSpace=wrap;html=1;fontSize=8;fillColor=#fff2cc;strokeColor=#d6b656;" parent="hsbkeRTYOtjVJKc5d7au-1" vertex="1">
          <mxGeometry x="1170" y="-130" width="120" height="60" as="geometry" />
        </mxCell>
        <mxCell id="hsbkeRTYOtjVJKc5d7au-39" value="//Usar Talend Data Mapper" style="text;html=1;resizable=0;autosize=1;align=center;verticalAlign=middle;points=[];fillColor=none;strokeColor=none;rounded=0;" parent="hsbkeRTYOtjVJKc5d7au-1" vertex="1">
          <mxGeometry x="1320" y="-110" width="160" height="20" as="geometry" />
        </mxCell>
        <mxCell id="hsbkeRTYOtjVJKc5d7au-40" value="//Usar tRestClient" style="text;html=1;resizable=0;autosize=1;align=center;verticalAlign=middle;points=[];fillColor=none;strokeColor=none;rounded=0;" parent="hsbkeRTYOtjVJKc5d7au-1" vertex="1">
          <mxGeometry x="1320" y="10" width="110" height="20" as="geometry" />
        </mxCell>
        <mxCell id="hsbkeRTYOtjVJKc5d7au-41" value="//Usar Talend Data Mapper" style="text;html=1;resizable=0;autosize=1;align=center;verticalAlign=middle;points=[];fillColor=none;strokeColor=none;rounded=0;" parent="hsbkeRTYOtjVJKc5d7au-1" vertex="1">
          <mxGeometry x="-260" y="620" width="160" height="20" as="geometry" />
        </mxCell>
        <mxCell id="hsbkeRTYOtjVJKc5d7au-42" value="//Usar tRestClient" style="text;html=1;resizable=0;autosize=1;align=center;verticalAlign=middle;points=[];fillColor=none;strokeColor=none;rounded=0;" parent="hsbkeRTYOtjVJKc5d7au-1" vertex="1">
          <mxGeometry x="-62.5" y="620" width="110" height="20" as="geometry" />
        </mxCell>
        <mxCell id="hsbkeRTYOtjVJKc5d7au-43" value="indicadorPersona&amp;nbsp;: Cliente&lt;br&gt;tipoPersona: 1&lt;br&gt;fechaGrabacionODH &amp;gt; ${today}" style="text;html=1;resizable=0;autosize=1;align=center;verticalAlign=middle;points=[];fillColor=none;strokeColor=none;rounded=0;" parent="hsbkeRTYOtjVJKc5d7au-1" vertex="1">
          <mxGeometry x="-480" y="-195" width="180" height="50" as="geometry" />
        </mxCell>
        <mxCell id="hsbkeRTYOtjVJKc5d7au-44" value="campaña: ProspectosFisicosResolucion" style="text;html=1;resizable=0;autosize=1;align=center;verticalAlign=middle;points=[];fillColor=none;strokeColor=none;rounded=0;" parent="hsbkeRTYOtjVJKc5d7au-1" vertex="1">
          <mxGeometry x="1365" y="-195" width="230" height="20" as="geometry" />
        </mxCell>
        <mxCell id="hsbkeRTYOtjVJKc5d7au-45" style="edgeStyle=orthogonalEdgeStyle;rounded=0;orthogonalLoop=1;jettySize=auto;html=1;entryX=0;entryY=0.5;entryDx=0;entryDy=0;" parent="hsbkeRTYOtjVJKc5d7au-1" source="hsbkeRTYOtjVJKc5d7au-47" target="hsbkeRTYOtjVJKc5d7au-13" edge="1">
          <mxGeometry relative="1" as="geometry" />
        </mxCell>
        <mxCell id="hsbkeRTYOtjVJKc5d7au-46" style="edgeStyle=orthogonalEdgeStyle;rounded=0;orthogonalLoop=1;jettySize=auto;html=1;entryX=0.5;entryY=0;entryDx=0;entryDy=0;" parent="hsbkeRTYOtjVJKc5d7au-1" source="hsbkeRTYOtjVJKc5d7au-47" target="hsbkeRTYOtjVJKc5d7au-49" edge="1">
          <mxGeometry relative="1" as="geometry" />
        </mxCell>
        <mxCell id="hsbkeRTYOtjVJKc5d7au-47" value="Marca el registro con las reglas no complidas" style="rounded=0;whiteSpace=wrap;html=1;fontSize=8;fillColor=#fff2cc;strokeColor=#d6b656;" parent="hsbkeRTYOtjVJKc5d7au-1" vertex="1">
          <mxGeometry x="230" y="-260" width="120" height="60" as="geometry" />
        </mxCell>
        <mxCell id="hsbkeRTYOtjVJKc5d7au-48" style="edgeStyle=orthogonalEdgeStyle;rounded=0;orthogonalLoop=1;jettySize=auto;html=1;entryX=0.5;entryY=0;entryDx=0;entryDy=0;" parent="hsbkeRTYOtjVJKc5d7au-1" source="hsbkeRTYOtjVJKc5d7au-49" target="hsbkeRTYOtjVJKc5d7au-50" edge="1">
          <mxGeometry relative="1" as="geometry" />
        </mxCell>
        <mxCell id="hsbkeRTYOtjVJKc5d7au-49" value="escribir el registro dentro de un csv de log" style="rounded=0;whiteSpace=wrap;html=1;fontSize=8;fillColor=#fff2cc;strokeColor=#d6b656;" parent="hsbkeRTYOtjVJKc5d7au-1" vertex="1">
          <mxGeometry x="230" y="-170" width="120" height="60" as="geometry" />
        </mxCell>
        <mxCell id="hsbkeRTYOtjVJKc5d7au-50" value="mandar mail con registros incorrectos" style="rounded=0;whiteSpace=wrap;html=1;fontSize=8;fillColor=#fff2cc;strokeColor=#d6b656;" parent="hsbkeRTYOtjVJKc5d7au-1" vertex="1">
          <mxGeometry x="230" y="-80" width="120" height="60" as="geometry" />
        </mxCell>
        <mxCell id="hsbkeRTYOtjVJKc5d7au-51" value="Modulo a definir:&lt;br&gt;-TRIM de los nombres appelidos&lt;br&gt;-Gestion caratceres raros nombres,appelidos&lt;br&gt;-Borrar espacio correos" style="text;html=1;resizable=0;autosize=1;align=center;verticalAlign=middle;points=[];fillColor=none;strokeColor=none;rounded=0;" parent="hsbkeRTYOtjVJKc5d7au-1" vertex="1">
          <mxGeometry x="565" y="-190" width="260" height="60" as="geometry" />
        </mxCell>
        <mxCell id="hsbkeRTYOtjVJKc5d7au-52" value="//Usar tRestClient" style="text;html=1;resizable=0;autosize=1;align=center;verticalAlign=middle;points=[];fillColor=none;strokeColor=none;rounded=0;" parent="hsbkeRTYOtjVJKc5d7au-1" vertex="1">
          <mxGeometry x="2260" y="280" width="110" height="20" as="geometry" />
        </mxCell>
        <mxCell id="hsbkeRTYOtjVJKc5d7au-53" value="" style="edgeStyle=orthogonalEdgeStyle;rounded=0;orthogonalLoop=1;jettySize=auto;html=1;" parent="hsbkeRTYOtjVJKc5d7au-1" source="hsbkeRTYOtjVJKc5d7au-54" target="hsbkeRTYOtjVJKc5d7au-55" edge="1">
          <mxGeometry relative="1" as="geometry" />
        </mxCell>
        <mxCell id="hsbkeRTYOtjVJKc5d7au-54" value="escribir el registro dentro de un csv de log" style="rounded=0;whiteSpace=wrap;html=1;fontSize=8;fillColor=#fff2cc;strokeColor=#d6b656;" parent="hsbkeRTYOtjVJKc5d7au-1" vertex="1">
          <mxGeometry x="1170" y="100" width="120" height="60" as="geometry" />
        </mxCell>
        <mxCell id="hsbkeRTYOtjVJKc5d7au-55" value="mandar mail con registros incorrectos" style="rounded=0;whiteSpace=wrap;html=1;fontSize=8;fillColor=#fff2cc;strokeColor=#d6b656;" parent="hsbkeRTYOtjVJKc5d7au-1" vertex="1">
          <mxGeometry x="1170" y="190" width="120" height="60" as="geometry" />
        </mxCell>
        <mxCell id="hsbkeRTYOtjVJKc5d7au-56" style="edgeStyle=orthogonalEdgeStyle;rounded=0;orthogonalLoop=1;jettySize=auto;html=1;" parent="hsbkeRTYOtjVJKc5d7au-1" source="hsbkeRTYOtjVJKc5d7au-57" target="hsbkeRTYOtjVJKc5d7au-58" edge="1">
          <mxGeometry relative="1" as="geometry" />
        </mxCell>
        <mxCell id="hsbkeRTYOtjVJKc5d7au-57" value="escribir el registro dentro de un csv de log" style="rounded=0;whiteSpace=wrap;html=1;fontSize=8;fillColor=#fff2cc;strokeColor=#d6b656;" parent="hsbkeRTYOtjVJKc5d7au-1" vertex="1">
          <mxGeometry x="112.5" y="540" width="120" height="60" as="geometry" />
        </mxCell>
        <mxCell id="hsbkeRTYOtjVJKc5d7au-58" value="mandar mail con registros incorrectos" style="rounded=0;whiteSpace=wrap;html=1;fontSize=8;fillColor=#fff2cc;strokeColor=#d6b656;" parent="hsbkeRTYOtjVJKc5d7au-1" vertex="1">
          <mxGeometry x="292.5" y="540" width="120" height="60" as="geometry" />
        </mxCell>
        <mxCell id="eI0pB5PgafSnsDXDGPQ6-4" style="edgeStyle=orthogonalEdgeStyle;rounded=0;orthogonalLoop=1;jettySize=auto;html=1;entryX=0;entryY=0.5;entryDx=0;entryDy=0;" edge="1" parent="hsbkeRTYOtjVJKc5d7au-1" source="eI0pB5PgafSnsDXDGPQ6-0" target="eI0pB5PgafSnsDXDGPQ6-3">
          <mxGeometry relative="1" as="geometry" />
        </mxCell>
        <mxCell id="eI0pB5PgafSnsDXDGPQ6-0" value="Obtención de información de la persona mediante el campo idenpn." style="rounded=0;whiteSpace=wrap;html=1;fontSize=8;fillColor=#fff2cc;strokeColor=#d6b656;" vertex="1" parent="hsbkeRTYOtjVJKc5d7au-1">
          <mxGeometry x="-590" y="540" width="120" height="60" as="geometry" />
        </mxCell>
        <mxCell id="eI0pB5PgafSnsDXDGPQ6-5" value="S" style="edgeStyle=orthogonalEdgeStyle;rounded=0;orthogonalLoop=1;jettySize=auto;html=1;" edge="1" parent="hsbkeRTYOtjVJKc5d7au-1" source="eI0pB5PgafSnsDXDGPQ6-3" target="hsbkeRTYOtjVJKc5d7au-36">
          <mxGeometry relative="1" as="geometry" />
        </mxCell>
        <mxCell id="eI0pB5PgafSnsDXDGPQ6-7" value="N" style="edgeStyle=orthogonalEdgeStyle;rounded=0;orthogonalLoop=1;jettySize=auto;html=1;entryX=0.5;entryY=0;entryDx=0;entryDy=0;" edge="1" parent="hsbkeRTYOtjVJKc5d7au-1" source="eI0pB5PgafSnsDXDGPQ6-3" target="eI0pB5PgafSnsDXDGPQ6-6">
          <mxGeometry relative="1" as="geometry" />
        </mxCell>
        <mxCell id="eI0pB5PgafSnsDXDGPQ6-3" value="version TDS=version API" style="rhombus;whiteSpace=wrap;html=1;fontSize=8;fillColor=#fff2cc;strokeColor=#d6b656;" vertex="1" parent="hsbkeRTYOtjVJKc5d7au-1">
          <mxGeometry x="-430" y="530" width="80" height="80" as="geometry" />
        </mxCell>
        <mxCell id="eI0pB5PgafSnsDXDGPQ6-6" value="escribir el registro dentro de un csv de log con error" style="rounded=0;whiteSpace=wrap;html=1;fontSize=8;fillColor=#f8cecc;strokeColor=#b85450;" vertex="1" parent="hsbkeRTYOtjVJKc5d7au-1">
          <mxGeometry x="-450" y="680" width="120" height="60" as="geometry" />
        </mxCell>
      </root>
    </mxGraphModel>
  </diagram>
  <diagram name="MDM_CLIENTES_JURIDICOS_RESOLUTION" id="lA_j2ncxM8jejHfpntsz">
    <mxGraphModel dx="1609" dy="1580" grid="1" gridSize="10" guides="1" tooltips="1" connect="1" arrows="1" fold="1" page="1" pageScale="1" pageWidth="827" pageHeight="1169" math="0" shadow="0">
      <root>
        <mxCell id="DfnRsFHbQ83Gld2KuzUp-0" />
        <mxCell id="DfnRsFHbQ83Gld2KuzUp-1" parent="DfnRsFHbQ83Gld2KuzUp-0" />
        <mxCell id="DfnRsFHbQ83Gld2KuzUp-2" value="MDM CLIENTES JURIDICOS RESOLUTION AUTOMATICA" style="rounded=0;whiteSpace=wrap;html=1;fontSize=8;align=left;verticalAlign=top;container=1;" parent="DfnRsFHbQ83Gld2KuzUp-1" vertex="1">
          <mxGeometry x="-615" y="-380" width="2250" height="690" as="geometry" />
        </mxCell>
        <mxCell id="DfnRsFHbQ83Gld2KuzUp-3" style="edgeStyle=orthogonalEdgeStyle;rounded=0;orthogonalLoop=1;jettySize=auto;html=1;" parent="DfnRsFHbQ83Gld2KuzUp-1" source="DfnRsFHbQ83Gld2KuzUp-4" target="DfnRsFHbQ83Gld2KuzUp-9" edge="1">
          <mxGeometry relative="1" as="geometry" />
        </mxCell>
        <mxCell id="DfnRsFHbQ83Gld2KuzUp-4" value="PROSPECTOS" style="rounded=1;whiteSpace=wrap;html=1;" parent="DfnRsFHbQ83Gld2KuzUp-1" vertex="1">
          <mxGeometry x="-450" y="-260" width="120" height="60" as="geometry" />
        </mxCell>
        <mxCell id="DfnRsFHbQ83Gld2KuzUp-5" value="N" style="edgeStyle=orthogonalEdgeStyle;rounded=0;orthogonalLoop=1;jettySize=auto;html=1;" parent="DfnRsFHbQ83Gld2KuzUp-1" source="DfnRsFHbQ83Gld2KuzUp-7" target="DfnRsFHbQ83Gld2KuzUp-47" edge="1">
          <mxGeometry relative="1" as="geometry" />
        </mxCell>
        <mxCell id="DfnRsFHbQ83Gld2KuzUp-6" value="S" style="edgeStyle=orthogonalEdgeStyle;rounded=0;orthogonalLoop=1;jettySize=auto;html=1;entryX=0.5;entryY=0;entryDx=0;entryDy=0;" parent="DfnRsFHbQ83Gld2KuzUp-1" source="DfnRsFHbQ83Gld2KuzUp-7" target="DfnRsFHbQ83Gld2KuzUp-15" edge="1">
          <mxGeometry relative="1" as="geometry" />
        </mxCell>
        <mxCell id="DfnRsFHbQ83Gld2KuzUp-7" value="Todo los campos DQ OK" style="rhombus;whiteSpace=wrap;html=1;fontSize=8;fillColor=#fff2cc;strokeColor=#d6b656;" parent="DfnRsFHbQ83Gld2KuzUp-1" vertex="1">
          <mxGeometry x="40" y="-270" width="80" height="80" as="geometry" />
        </mxCell>
        <mxCell id="DfnRsFHbQ83Gld2KuzUp-8" style="edgeStyle=orthogonalEdgeStyle;rounded=0;orthogonalLoop=1;jettySize=auto;html=1;" parent="DfnRsFHbQ83Gld2KuzUp-1" source="DfnRsFHbQ83Gld2KuzUp-9" target="DfnRsFHbQ83Gld2KuzUp-7" edge="1">
          <mxGeometry relative="1" as="geometry" />
        </mxCell>
        <mxCell id="DfnRsFHbQ83Gld2KuzUp-9" value="VERIFICAR REGLAS DQ" style="rounded=0;whiteSpace=wrap;html=1;fontSize=8;fillColor=#fff2cc;strokeColor=#d6b656;" parent="DfnRsFHbQ83Gld2KuzUp-1" vertex="1">
          <mxGeometry x="-190" y="-260" width="120" height="60" as="geometry" />
        </mxCell>
        <mxCell id="DfnRsFHbQ83Gld2KuzUp-10" style="edgeStyle=orthogonalEdgeStyle;rounded=0;orthogonalLoop=1;jettySize=auto;html=1;" parent="DfnRsFHbQ83Gld2KuzUp-1" source="DfnRsFHbQ83Gld2KuzUp-11" target="DfnRsFHbQ83Gld2KuzUp-21" edge="1">
          <mxGeometry relative="1" as="geometry" />
        </mxCell>
        <mxCell id="DfnRsFHbQ83Gld2KuzUp-11" value="Aplicar cambios Automaticos" style="rounded=0;whiteSpace=wrap;html=1;fontSize=8;fillColor=#fff2cc;strokeColor=#d6b656;" parent="DfnRsFHbQ83Gld2KuzUp-1" vertex="1">
          <mxGeometry x="620" y="-260" width="120" height="60" as="geometry" />
        </mxCell>
        <mxCell id="DfnRsFHbQ83Gld2KuzUp-12" style="edgeStyle=orthogonalEdgeStyle;rounded=0;orthogonalLoop=1;jettySize=auto;html=1;entryX=0;entryY=0.5;entryDx=0;entryDy=0;" parent="DfnRsFHbQ83Gld2KuzUp-1" source="DfnRsFHbQ83Gld2KuzUp-13" target="DfnRsFHbQ83Gld2KuzUp-11" edge="1">
          <mxGeometry relative="1" as="geometry" />
        </mxCell>
        <mxCell id="DfnRsFHbQ83Gld2KuzUp-13" value="addCRC_ANTES" style="rounded=0;whiteSpace=wrap;html=1;fontSize=8;fillColor=#fff2cc;strokeColor=#d6b656;" parent="DfnRsFHbQ83Gld2KuzUp-1" vertex="1">
          <mxGeometry x="450" y="-260" width="120" height="60" as="geometry" />
        </mxCell>
        <mxCell id="DfnRsFHbQ83Gld2KuzUp-14" value="añadir un campo hash con &lt;br&gt;todos los campos que se controlan/corrigen" style="text;html=1;resizable=0;autosize=1;align=center;verticalAlign=middle;points=[];fillColor=none;strokeColor=none;rounded=0;" parent="DfnRsFHbQ83Gld2KuzUp-1" vertex="1">
          <mxGeometry x="385" y="-310" width="250" height="30" as="geometry" />
        </mxCell>
        <mxCell id="DfnRsFHbQ83Gld2KuzUp-15" value="FIN" style="rounded=1;whiteSpace=wrap;html=1;" parent="DfnRsFHbQ83Gld2KuzUp-1" vertex="1">
          <mxGeometry x="20" y="-90" width="120" height="60" as="geometry" />
        </mxCell>
        <mxCell id="DfnRsFHbQ83Gld2KuzUp-16" style="edgeStyle=orthogonalEdgeStyle;rounded=0;orthogonalLoop=1;jettySize=auto;html=1;entryX=0;entryY=0.5;entryDx=0;entryDy=0;" parent="DfnRsFHbQ83Gld2KuzUp-1" source="DfnRsFHbQ83Gld2KuzUp-19" target="DfnRsFHbQ83Gld2KuzUp-26" edge="1">
          <mxGeometry relative="1" as="geometry" />
        </mxCell>
        <mxCell id="DfnRsFHbQ83Gld2KuzUp-17" value="N&lt;br&gt;" style="edgeLabel;html=1;align=center;verticalAlign=middle;resizable=0;points=[];" parent="DfnRsFHbQ83Gld2KuzUp-16" vertex="1" connectable="0">
          <mxGeometry x="0.24" y="2" relative="1" as="geometry">
            <mxPoint as="offset" />
          </mxGeometry>
        </mxCell>
        <mxCell id="DfnRsFHbQ83Gld2KuzUp-18" value="S" style="edgeStyle=orthogonalEdgeStyle;rounded=0;orthogonalLoop=1;jettySize=auto;html=1;" parent="DfnRsFHbQ83Gld2KuzUp-1" source="DfnRsFHbQ83Gld2KuzUp-19" target="DfnRsFHbQ83Gld2KuzUp-38" edge="1">
          <mxGeometry relative="1" as="geometry" />
        </mxCell>
        <mxCell id="DfnRsFHbQ83Gld2KuzUp-19" value="Todo los campos DQ OK&lt;br&gt;Y&lt;br&gt;addCRC_ANTES!=addCRC_DESPUES" style="rhombus;whiteSpace=wrap;html=1;fontSize=8;fillColor=#fff2cc;strokeColor=#d6b656;" parent="DfnRsFHbQ83Gld2KuzUp-1" vertex="1">
          <mxGeometry x="1190" y="-270" width="80" height="80" as="geometry" />
        </mxCell>
        <mxCell id="DfnRsFHbQ83Gld2KuzUp-20" style="edgeStyle=orthogonalEdgeStyle;rounded=0;orthogonalLoop=1;jettySize=auto;html=1;entryX=0;entryY=0.5;entryDx=0;entryDy=0;" parent="DfnRsFHbQ83Gld2KuzUp-1" source="DfnRsFHbQ83Gld2KuzUp-21" target="DfnRsFHbQ83Gld2KuzUp-23" edge="1">
          <mxGeometry relative="1" as="geometry" />
        </mxCell>
        <mxCell id="DfnRsFHbQ83Gld2KuzUp-21" value="VERIFICAR REGLAS DQ" style="rounded=0;whiteSpace=wrap;html=1;fontSize=8;fillColor=#fff2cc;strokeColor=#d6b656;" parent="DfnRsFHbQ83Gld2KuzUp-1" vertex="1">
          <mxGeometry x="810" y="-260" width="120" height="60" as="geometry" />
        </mxCell>
        <mxCell id="DfnRsFHbQ83Gld2KuzUp-22" style="edgeStyle=orthogonalEdgeStyle;rounded=0;orthogonalLoop=1;jettySize=auto;html=1;entryX=0;entryY=0.5;entryDx=0;entryDy=0;" parent="DfnRsFHbQ83Gld2KuzUp-1" source="DfnRsFHbQ83Gld2KuzUp-23" target="DfnRsFHbQ83Gld2KuzUp-19" edge="1">
          <mxGeometry relative="1" as="geometry" />
        </mxCell>
        <mxCell id="DfnRsFHbQ83Gld2KuzUp-23" value="addCRC_DESPUES" style="rounded=0;whiteSpace=wrap;html=1;fontSize=8;fillColor=#fff2cc;strokeColor=#d6b656;" parent="DfnRsFHbQ83Gld2KuzUp-1" vertex="1">
          <mxGeometry x="970" y="-260" width="120" height="60" as="geometry" />
        </mxCell>
        <mxCell id="DfnRsFHbQ83Gld2KuzUp-24" style="edgeStyle=orthogonalEdgeStyle;rounded=0;orthogonalLoop=1;jettySize=auto;html=1;entryX=0.5;entryY=0;entryDx=0;entryDy=0;" parent="DfnRsFHbQ83Gld2KuzUp-1" source="DfnRsFHbQ83Gld2KuzUp-25" target="DfnRsFHbQ83Gld2KuzUp-54" edge="1">
          <mxGeometry relative="1" as="geometry" />
        </mxCell>
        <mxCell id="DfnRsFHbQ83Gld2KuzUp-25" value="API updatePerson con conciliacionHost=1" style="rounded=0;whiteSpace=wrap;html=1;fontSize=8;fillColor=#fff2cc;strokeColor=#d6b656;" parent="DfnRsFHbQ83Gld2KuzUp-1" vertex="1">
          <mxGeometry x="1170" width="120" height="60" as="geometry" />
        </mxCell>
        <mxCell id="DfnRsFHbQ83Gld2KuzUp-26" value="Mandar la persona al TDS para corrección manual" style="rounded=0;whiteSpace=wrap;html=1;fontSize=8;fillColor=#fff2cc;strokeColor=#d6b656;" parent="DfnRsFHbQ83Gld2KuzUp-1" vertex="1">
          <mxGeometry x="1420" y="-260" width="120" height="60" as="geometry" />
        </mxCell>
        <mxCell id="DfnRsFHbQ83Gld2KuzUp-27" style="edgeStyle=orthogonalEdgeStyle;rounded=0;orthogonalLoop=1;jettySize=auto;html=1;exitX=0.5;exitY=1;exitDx=0;exitDy=0;" parent="DfnRsFHbQ83Gld2KuzUp-1" source="DfnRsFHbQ83Gld2KuzUp-26" target="DfnRsFHbQ83Gld2KuzUp-26" edge="1">
          <mxGeometry relative="1" as="geometry" />
        </mxCell>
        <mxCell id="DfnRsFHbQ83Gld2KuzUp-28" value="campos a projectar:&lt;br&gt;idPnODH&lt;br&gt;codigoValidez&lt;br&gt;tipoPersona&lt;br&gt;version&lt;br&gt;datosIdentificativos.datosPersonaFisica.nombre&lt;br&gt;datosIdentificativos.datosPersonaFisica.primerApellido&lt;br&gt;datosIdentificativos.datosPersonaFisica.segundoApellido&lt;br&gt;datosIdentificativos.datosPersonaFisica.codigoGenero&lt;br&gt;datosIdentificativos.numeroIdentidad" style="text;html=1;resizable=0;autosize=1;align=center;verticalAlign=middle;points=[];fillColor=none;strokeColor=none;rounded=0;" parent="DfnRsFHbQ83Gld2KuzUp-1" vertex="1">
          <mxGeometry x="-550" y="-80" width="320" height="150" as="geometry" />
        </mxCell>
        <mxCell id="DfnRsFHbQ83Gld2KuzUp-29" value="añadir un campo hash con &lt;br&gt;todos los campos que se controlan/corrigen" style="text;html=1;resizable=0;autosize=1;align=center;verticalAlign=middle;points=[];fillColor=none;strokeColor=none;rounded=0;" parent="DfnRsFHbQ83Gld2KuzUp-1" vertex="1">
          <mxGeometry x="770" y="-325" width="250" height="30" as="geometry" />
        </mxCell>
        <mxCell id="DfnRsFHbQ83Gld2KuzUp-30" value="MDM CLIENTES FISICOS RESOLUTION MANUAL" style="rounded=0;whiteSpace=wrap;html=1;fontSize=8;align=left;verticalAlign=top;" parent="DfnRsFHbQ83Gld2KuzUp-1" vertex="1">
          <mxGeometry x="-610" y="470" width="1240" height="330" as="geometry" />
        </mxCell>
        <mxCell id="pjAfKQuohkBATmP3cdd6-3" style="edgeStyle=orthogonalEdgeStyle;rounded=0;orthogonalLoop=1;jettySize=auto;html=1;" edge="1" parent="DfnRsFHbQ83Gld2KuzUp-1" source="DfnRsFHbQ83Gld2KuzUp-32" target="pjAfKQuohkBATmP3cdd6-2">
          <mxGeometry relative="1" as="geometry" />
        </mxCell>
        <mxCell id="DfnRsFHbQ83Gld2KuzUp-32" value="Recuperar las personas corregidas manualemente desde TDS" style="rounded=0;whiteSpace=wrap;html=1;fontSize=8;fillColor=#fff2cc;strokeColor=#d6b656;" parent="DfnRsFHbQ83Gld2KuzUp-1" vertex="1">
          <mxGeometry x="-590" y="540" width="120" height="60" as="geometry" />
        </mxCell>
        <mxCell id="DfnRsFHbQ83Gld2KuzUp-33" style="edgeStyle=orthogonalEdgeStyle;rounded=0;orthogonalLoop=1;jettySize=auto;html=1;entryX=0;entryY=0.5;entryDx=0;entryDy=0;" parent="DfnRsFHbQ83Gld2KuzUp-1" source="DfnRsFHbQ83Gld2KuzUp-34" target="DfnRsFHbQ83Gld2KuzUp-57" edge="1">
          <mxGeometry relative="1" as="geometry" />
        </mxCell>
        <mxCell id="DfnRsFHbQ83Gld2KuzUp-34" value="API updatePerson con los datos corregidos" style="rounded=0;whiteSpace=wrap;html=1;fontSize=8;fillColor=#fff2cc;strokeColor=#d6b656;" parent="DfnRsFHbQ83Gld2KuzUp-1" vertex="1">
          <mxGeometry x="120" y="540" width="120" height="60" as="geometry" />
        </mxCell>
        <mxCell id="DfnRsFHbQ83Gld2KuzUp-35" style="edgeStyle=orthogonalEdgeStyle;rounded=0;orthogonalLoop=1;jettySize=auto;html=1;" parent="DfnRsFHbQ83Gld2KuzUp-1" source="DfnRsFHbQ83Gld2KuzUp-36" target="DfnRsFHbQ83Gld2KuzUp-34" edge="1">
          <mxGeometry relative="1" as="geometry" />
        </mxCell>
        <mxCell id="DfnRsFHbQ83Gld2KuzUp-36" value="Mappear los datos corregidos" style="rounded=0;whiteSpace=wrap;html=1;fontSize=8;fillColor=#fff2cc;strokeColor=#d6b656;" parent="DfnRsFHbQ83Gld2KuzUp-1" vertex="1">
          <mxGeometry x="-90" y="540" width="120" height="60" as="geometry" />
        </mxCell>
        <mxCell id="DfnRsFHbQ83Gld2KuzUp-37" style="edgeStyle=orthogonalEdgeStyle;rounded=0;orthogonalLoop=1;jettySize=auto;html=1;" parent="DfnRsFHbQ83Gld2KuzUp-1" source="DfnRsFHbQ83Gld2KuzUp-38" target="DfnRsFHbQ83Gld2KuzUp-25" edge="1">
          <mxGeometry relative="1" as="geometry" />
        </mxCell>
        <mxCell id="DfnRsFHbQ83Gld2KuzUp-38" value="Mappear los datos corregidos" style="rounded=0;whiteSpace=wrap;html=1;fontSize=8;fillColor=#fff2cc;strokeColor=#d6b656;" parent="DfnRsFHbQ83Gld2KuzUp-1" vertex="1">
          <mxGeometry x="1170" y="-130" width="120" height="60" as="geometry" />
        </mxCell>
        <mxCell id="DfnRsFHbQ83Gld2KuzUp-39" value="//Usar Talend Data Mapper" style="text;html=1;resizable=0;autosize=1;align=center;verticalAlign=middle;points=[];fillColor=none;strokeColor=none;rounded=0;" parent="DfnRsFHbQ83Gld2KuzUp-1" vertex="1">
          <mxGeometry x="1320" y="-110" width="160" height="20" as="geometry" />
        </mxCell>
        <mxCell id="DfnRsFHbQ83Gld2KuzUp-40" value="//Usar tRestClient" style="text;html=1;resizable=0;autosize=1;align=center;verticalAlign=middle;points=[];fillColor=none;strokeColor=none;rounded=0;" parent="DfnRsFHbQ83Gld2KuzUp-1" vertex="1">
          <mxGeometry x="1320" y="10" width="110" height="20" as="geometry" />
        </mxCell>
        <mxCell id="DfnRsFHbQ83Gld2KuzUp-41" value="//Usar Talend Data Mapper" style="text;html=1;resizable=0;autosize=1;align=center;verticalAlign=middle;points=[];fillColor=none;strokeColor=none;rounded=0;" parent="DfnRsFHbQ83Gld2KuzUp-1" vertex="1">
          <mxGeometry x="-110" y="610" width="160" height="20" as="geometry" />
        </mxCell>
        <mxCell id="DfnRsFHbQ83Gld2KuzUp-42" value="//Usar tRestClient" style="text;html=1;resizable=0;autosize=1;align=center;verticalAlign=middle;points=[];fillColor=none;strokeColor=none;rounded=0;" parent="DfnRsFHbQ83Gld2KuzUp-1" vertex="1">
          <mxGeometry x="110" y="610" width="110" height="20" as="geometry" />
        </mxCell>
        <mxCell id="DfnRsFHbQ83Gld2KuzUp-43" value="indicadorPersona&amp;nbsp;: Cliente&lt;br&gt;tipoPersona: 0&lt;br&gt;fechaGrabacionODH &amp;gt; ${today}" style="text;html=1;resizable=0;autosize=1;align=center;verticalAlign=middle;points=[];fillColor=none;strokeColor=none;rounded=0;" parent="DfnRsFHbQ83Gld2KuzUp-1" vertex="1">
          <mxGeometry x="-480" y="-195" width="180" height="50" as="geometry" />
        </mxCell>
        <mxCell id="DfnRsFHbQ83Gld2KuzUp-44" value="campaña: ProspectosFisicosResolucion" style="text;html=1;resizable=0;autosize=1;align=center;verticalAlign=middle;points=[];fillColor=none;strokeColor=none;rounded=0;" parent="DfnRsFHbQ83Gld2KuzUp-1" vertex="1">
          <mxGeometry x="1365" y="-195" width="230" height="20" as="geometry" />
        </mxCell>
        <mxCell id="DfnRsFHbQ83Gld2KuzUp-45" style="edgeStyle=orthogonalEdgeStyle;rounded=0;orthogonalLoop=1;jettySize=auto;html=1;entryX=0;entryY=0.5;entryDx=0;entryDy=0;" parent="DfnRsFHbQ83Gld2KuzUp-1" source="DfnRsFHbQ83Gld2KuzUp-47" target="DfnRsFHbQ83Gld2KuzUp-13" edge="1">
          <mxGeometry relative="1" as="geometry" />
        </mxCell>
        <mxCell id="DfnRsFHbQ83Gld2KuzUp-46" style="edgeStyle=orthogonalEdgeStyle;rounded=0;orthogonalLoop=1;jettySize=auto;html=1;entryX=0.5;entryY=0;entryDx=0;entryDy=0;" parent="DfnRsFHbQ83Gld2KuzUp-1" source="DfnRsFHbQ83Gld2KuzUp-47" target="DfnRsFHbQ83Gld2KuzUp-49" edge="1">
          <mxGeometry relative="1" as="geometry" />
        </mxCell>
        <mxCell id="DfnRsFHbQ83Gld2KuzUp-47" value="Marca el registro con las reglas no complidas" style="rounded=0;whiteSpace=wrap;html=1;fontSize=8;fillColor=#fff2cc;strokeColor=#d6b656;" parent="DfnRsFHbQ83Gld2KuzUp-1" vertex="1">
          <mxGeometry x="230" y="-260" width="120" height="60" as="geometry" />
        </mxCell>
        <mxCell id="DfnRsFHbQ83Gld2KuzUp-48" style="edgeStyle=orthogonalEdgeStyle;rounded=0;orthogonalLoop=1;jettySize=auto;html=1;entryX=0.5;entryY=0;entryDx=0;entryDy=0;" parent="DfnRsFHbQ83Gld2KuzUp-1" source="DfnRsFHbQ83Gld2KuzUp-49" target="DfnRsFHbQ83Gld2KuzUp-50" edge="1">
          <mxGeometry relative="1" as="geometry" />
        </mxCell>
        <mxCell id="DfnRsFHbQ83Gld2KuzUp-49" value="escribir el registro dentro de un csv de log" style="rounded=0;whiteSpace=wrap;html=1;fontSize=8;fillColor=#fff2cc;strokeColor=#d6b656;" parent="DfnRsFHbQ83Gld2KuzUp-1" vertex="1">
          <mxGeometry x="230" y="-170" width="120" height="60" as="geometry" />
        </mxCell>
        <mxCell id="DfnRsFHbQ83Gld2KuzUp-50" value="mandar mail con registros incorrectos" style="rounded=0;whiteSpace=wrap;html=1;fontSize=8;fillColor=#fff2cc;strokeColor=#d6b656;" parent="DfnRsFHbQ83Gld2KuzUp-1" vertex="1">
          <mxGeometry x="230" y="-80" width="120" height="60" as="geometry" />
        </mxCell>
        <mxCell id="DfnRsFHbQ83Gld2KuzUp-51" value="Modulo a definir:&lt;br&gt;-TRIM de los nombres appelidos&lt;br&gt;-Gestion caratceres raros nombres,appelidos&lt;br&gt;-Borrar espacio correos" style="text;html=1;resizable=0;autosize=1;align=center;verticalAlign=middle;points=[];fillColor=none;strokeColor=none;rounded=0;" parent="DfnRsFHbQ83Gld2KuzUp-1" vertex="1">
          <mxGeometry x="565" y="-190" width="260" height="60" as="geometry" />
        </mxCell>
        <mxCell id="DfnRsFHbQ83Gld2KuzUp-52" value="//Usar tRestClient" style="text;html=1;resizable=0;autosize=1;align=center;verticalAlign=middle;points=[];fillColor=none;strokeColor=none;rounded=0;" parent="DfnRsFHbQ83Gld2KuzUp-1" vertex="1">
          <mxGeometry x="2260" y="280" width="110" height="20" as="geometry" />
        </mxCell>
        <mxCell id="DfnRsFHbQ83Gld2KuzUp-53" value="" style="edgeStyle=orthogonalEdgeStyle;rounded=0;orthogonalLoop=1;jettySize=auto;html=1;" parent="DfnRsFHbQ83Gld2KuzUp-1" source="DfnRsFHbQ83Gld2KuzUp-54" target="DfnRsFHbQ83Gld2KuzUp-55" edge="1">
          <mxGeometry relative="1" as="geometry" />
        </mxCell>
        <mxCell id="DfnRsFHbQ83Gld2KuzUp-54" value="escribir el registro dentro de un csv de log" style="rounded=0;whiteSpace=wrap;html=1;fontSize=8;fillColor=#fff2cc;strokeColor=#d6b656;" parent="DfnRsFHbQ83Gld2KuzUp-1" vertex="1">
          <mxGeometry x="1170" y="100" width="120" height="60" as="geometry" />
        </mxCell>
        <mxCell id="DfnRsFHbQ83Gld2KuzUp-55" value="mandar mail con registros incorrectos" style="rounded=0;whiteSpace=wrap;html=1;fontSize=8;fillColor=#fff2cc;strokeColor=#d6b656;" parent="DfnRsFHbQ83Gld2KuzUp-1" vertex="1">
          <mxGeometry x="1170" y="190" width="120" height="60" as="geometry" />
        </mxCell>
        <mxCell id="DfnRsFHbQ83Gld2KuzUp-56" style="edgeStyle=orthogonalEdgeStyle;rounded=0;orthogonalLoop=1;jettySize=auto;html=1;" parent="DfnRsFHbQ83Gld2KuzUp-1" source="DfnRsFHbQ83Gld2KuzUp-57" target="DfnRsFHbQ83Gld2KuzUp-58" edge="1">
          <mxGeometry relative="1" as="geometry" />
        </mxCell>
        <mxCell id="DfnRsFHbQ83Gld2KuzUp-57" value="escribir el registro dentro de un csv de log" style="rounded=0;whiteSpace=wrap;html=1;fontSize=8;fillColor=#fff2cc;strokeColor=#d6b656;" parent="DfnRsFHbQ83Gld2KuzUp-1" vertex="1">
          <mxGeometry x="300" y="540" width="120" height="60" as="geometry" />
        </mxCell>
        <mxCell id="DfnRsFHbQ83Gld2KuzUp-58" value="mandar mail con registros incorrectos" style="rounded=0;whiteSpace=wrap;html=1;fontSize=8;fillColor=#fff2cc;strokeColor=#d6b656;" parent="DfnRsFHbQ83Gld2KuzUp-1" vertex="1">
          <mxGeometry x="460" y="540" width="120" height="60" as="geometry" />
        </mxCell>
        <mxCell id="pjAfKQuohkBATmP3cdd6-5" style="edgeStyle=orthogonalEdgeStyle;rounded=0;orthogonalLoop=1;jettySize=auto;html=1;" edge="1" parent="DfnRsFHbQ83Gld2KuzUp-1" source="pjAfKQuohkBATmP3cdd6-2" target="pjAfKQuohkBATmP3cdd6-4">
          <mxGeometry relative="1" as="geometry" />
        </mxCell>
        <mxCell id="pjAfKQuohkBATmP3cdd6-2" value="Obtención de información de la persona mediante el campo idenpn" style="rounded=0;whiteSpace=wrap;html=1;fontSize=8;fillColor=#fff2cc;strokeColor=#d6b656;" vertex="1" parent="DfnRsFHbQ83Gld2KuzUp-1">
          <mxGeometry x="-420" y="540" width="120" height="60" as="geometry" />
        </mxCell>
        <mxCell id="pjAfKQuohkBATmP3cdd6-6" value="S" style="edgeStyle=orthogonalEdgeStyle;rounded=0;orthogonalLoop=1;jettySize=auto;html=1;entryX=0;entryY=0.5;entryDx=0;entryDy=0;" edge="1" parent="DfnRsFHbQ83Gld2KuzUp-1" source="pjAfKQuohkBATmP3cdd6-4" target="DfnRsFHbQ83Gld2KuzUp-36">
          <mxGeometry relative="1" as="geometry" />
        </mxCell>
        <mxCell id="pjAfKQuohkBATmP3cdd6-8" value="N" style="edgeStyle=orthogonalEdgeStyle;rounded=0;orthogonalLoop=1;jettySize=auto;html=1;" edge="1" parent="DfnRsFHbQ83Gld2KuzUp-1" source="pjAfKQuohkBATmP3cdd6-4" target="pjAfKQuohkBATmP3cdd6-7">
          <mxGeometry relative="1" as="geometry" />
        </mxCell>
        <mxCell id="pjAfKQuohkBATmP3cdd6-4" value="Todo los campos DQ OK" style="rhombus;whiteSpace=wrap;html=1;fontSize=8;fillColor=#fff2cc;strokeColor=#d6b656;" vertex="1" parent="DfnRsFHbQ83Gld2KuzUp-1">
          <mxGeometry x="-230" y="530" width="80" height="80" as="geometry" />
        </mxCell>
        <mxCell id="pjAfKQuohkBATmP3cdd6-7" value="escribir el registro dentro de un csv de log con error" style="rounded=0;whiteSpace=wrap;html=1;fontSize=8;fillColor=#f8cecc;strokeColor=#b85450;" vertex="1" parent="DfnRsFHbQ83Gld2KuzUp-1">
          <mxGeometry x="-250" y="680" width="120" height="60" as="geometry" />
        </mxCell>
      </root>
    </mxGraphModel>
  </diagram>
</mxfile>
